<mxfile host="65bd71144e" pages="5">
    <diagram name="Activity" id="uPclsyQii_at0KeWwFpW">
        <mxGraphModel dx="1304" dy="533" grid="1" gridSize="10" guides="1" tooltips="1" connect="1" arrows="1" fold="1" page="1" pageScale="1" pageWidth="827" pageHeight="1169" math="0" shadow="0">
            <root>
                <mxCell id="Cj-LbPKbuyz0d0K42BQ3-0"/>
                <mxCell id="Cj-LbPKbuyz0d0K42BQ3-1" parent="Cj-LbPKbuyz0d0K42BQ3-0"/>
                <mxCell id="TcULU_LW6IlUQcUi-L3m-10" style="edgeStyle=orthogonalEdgeStyle;rounded=0;orthogonalLoop=1;jettySize=auto;html=1;exitX=0.5;exitY=1;exitDx=0;exitDy=0;entryX=0.5;entryY=0;entryDx=0;entryDy=0;" parent="Cj-LbPKbuyz0d0K42BQ3-1" source="Cj-LbPKbuyz0d0K42BQ3-4" target="Lg_6FqI11bwl8ig4fE6F-1" edge="1">
                    <mxGeometry relative="1" as="geometry"/>
                </mxCell>
                <mxCell id="Cj-LbPKbuyz0d0K42BQ3-4" value="" style="ellipse;whiteSpace=wrap;html=1;fontSize=14;" parent="Cj-LbPKbuyz0d0K42BQ3-1" vertex="1">
                    <mxGeometry x="358.75" y="80" width="80" height="80" as="geometry"/>
                </mxCell>
                <mxCell id="TcULU_LW6IlUQcUi-L3m-8" style="edgeStyle=orthogonalEdgeStyle;rounded=0;orthogonalLoop=1;jettySize=auto;html=1;exitX=0.5;exitY=1;exitDx=0;exitDy=0;entryX=0.5;entryY=0;entryDx=0;entryDy=0;" parent="Cj-LbPKbuyz0d0K42BQ3-1" source="Lg_6FqI11bwl8ig4fE6F-1" target="TcULU_LW6IlUQcUi-L3m-0" edge="1">
                    <mxGeometry relative="1" as="geometry"/>
                </mxCell>
                <mxCell id="TcULU_LW6IlUQcUi-L3m-9" style="edgeStyle=orthogonalEdgeStyle;rounded=0;orthogonalLoop=1;jettySize=auto;html=1;exitX=0.5;exitY=1;exitDx=0;exitDy=0;entryX=0.5;entryY=0;entryDx=0;entryDy=0;" parent="Cj-LbPKbuyz0d0K42BQ3-1" source="Lg_6FqI11bwl8ig4fE6F-1" target="TcULU_LW6IlUQcUi-L3m-2" edge="1">
                    <mxGeometry relative="1" as="geometry"/>
                </mxCell>
                <mxCell id="qiReesVCIodHOXlRmErm-23" style="edgeStyle=orthogonalEdgeStyle;rounded=0;orthogonalLoop=1;jettySize=auto;html=1;exitX=0.5;exitY=1;exitDx=0;exitDy=0;" parent="Cj-LbPKbuyz0d0K42BQ3-1" source="Lg_6FqI11bwl8ig4fE6F-1" target="qiReesVCIodHOXlRmErm-19" edge="1">
                    <mxGeometry relative="1" as="geometry"/>
                </mxCell>
                <mxCell id="CyN0C69dDbhaPe7vFzdz-31" style="edgeStyle=orthogonalEdgeStyle;rounded=0;orthogonalLoop=1;jettySize=auto;html=1;exitX=0.5;exitY=1;exitDx=0;exitDy=0;entryX=0.5;entryY=0;entryDx=0;entryDy=0;" parent="Cj-LbPKbuyz0d0K42BQ3-1" source="Lg_6FqI11bwl8ig4fE6F-1" target="CyN0C69dDbhaPe7vFzdz-19" edge="1">
                    <mxGeometry relative="1" as="geometry"/>
                </mxCell>
                <mxCell id="Lg_6FqI11bwl8ig4fE6F-1" value="" style="rounded=0;whiteSpace=wrap;html=1;fontSize=14;strokeColor=#666666;fontColor=#333333;fillColor=#000000;" parent="Cj-LbPKbuyz0d0K42BQ3-1" vertex="1">
                    <mxGeometry x="298.75" y="200" width="200" height="20" as="geometry"/>
                </mxCell>
                <mxCell id="HtXAzRcVxHhU0PeTA6wP-0" style="edgeStyle=orthogonalEdgeStyle;rounded=0;orthogonalLoop=1;jettySize=auto;html=1;" parent="Cj-LbPKbuyz0d0K42BQ3-1" source="69hCHuzmqdWGX1qRL9Uy-1" edge="1">
                    <mxGeometry relative="1" as="geometry">
                        <mxPoint x="-20" y="480" as="targetPoint"/>
                    </mxGeometry>
                </mxCell>
                <mxCell id="69hCHuzmqdWGX1qRL9Uy-1" value="Enter Entity Information" style="rounded=1;whiteSpace=wrap;html=1;fillColor=#f8cecc;strokeColor=#b85450;" parent="Cj-LbPKbuyz0d0K42BQ3-1" vertex="1">
                    <mxGeometry x="-90" y="380" width="140" height="40" as="geometry"/>
                </mxCell>
                <mxCell id="K4wyRmSRQusE0t3GwHZh-2" style="edgeStyle=orthogonalEdgeStyle;rounded=0;orthogonalLoop=1;jettySize=auto;html=1;entryX=0.5;entryY=1;entryDx=0;entryDy=0;exitX=0;exitY=0.5;exitDx=0;exitDy=0;" parent="Cj-LbPKbuyz0d0K42BQ3-1" source="K4wyRmSRQusE0t3GwHZh-1" target="K4wyRmSRQusE0t3GwHZh-3" edge="1">
                    <mxGeometry relative="1" as="geometry">
                        <mxPoint x="-270" y="450" as="targetPoint"/>
                    </mxGeometry>
                </mxCell>
                <mxCell id="J5le03PTGeUCgLsyB9Ag-0" style="edgeStyle=orthogonalEdgeStyle;rounded=0;orthogonalLoop=1;jettySize=auto;html=1;" parent="Cj-LbPKbuyz0d0K42BQ3-1" source="K4wyRmSRQusE0t3GwHZh-1" edge="1">
                    <mxGeometry relative="1" as="geometry">
                        <mxPoint x="-20" y="600" as="targetPoint"/>
                    </mxGeometry>
                </mxCell>
                <mxCell id="K4wyRmSRQusE0t3GwHZh-1" value="Is the information valid?" style="rhombus;whiteSpace=wrap;html=1;fillColor=#f8cecc;strokeColor=#b85450;" parent="Cj-LbPKbuyz0d0K42BQ3-1" vertex="1">
                    <mxGeometry x="-120" y="480" width="200" height="70" as="geometry"/>
                </mxCell>
                <mxCell id="K4wyRmSRQusE0t3GwHZh-4" style="edgeStyle=orthogonalEdgeStyle;rounded=0;orthogonalLoop=1;jettySize=auto;html=1;exitX=0.5;exitY=0;exitDx=0;exitDy=0;entryX=0;entryY=0.5;entryDx=0;entryDy=0;" parent="Cj-LbPKbuyz0d0K42BQ3-1" source="K4wyRmSRQusE0t3GwHZh-3" target="69hCHuzmqdWGX1qRL9Uy-1" edge="1">
                    <mxGeometry relative="1" as="geometry"/>
                </mxCell>
                <mxCell id="K4wyRmSRQusE0t3GwHZh-3" value="Display error" style="rounded=1;whiteSpace=wrap;html=1;fillColor=#f8cecc;strokeColor=#b85450;" parent="Cj-LbPKbuyz0d0K42BQ3-1" vertex="1">
                    <mxGeometry x="-240" y="440" width="120" height="40" as="geometry"/>
                </mxCell>
                <mxCell id="J5le03PTGeUCgLsyB9Ag-2" style="edgeStyle=orthogonalEdgeStyle;rounded=0;orthogonalLoop=1;jettySize=auto;html=1;" parent="Cj-LbPKbuyz0d0K42BQ3-1" source="J5le03PTGeUCgLsyB9Ag-1" edge="1">
                    <mxGeometry relative="1" as="geometry">
                        <mxPoint x="-20" y="680" as="targetPoint"/>
                    </mxGeometry>
                </mxCell>
                <mxCell id="J5le03PTGeUCgLsyB9Ag-1" value="Assign unique ID to entity" style="rounded=1;whiteSpace=wrap;html=1;fillColor=#f8cecc;strokeColor=#b85450;" parent="Cj-LbPKbuyz0d0K42BQ3-1" vertex="1">
                    <mxGeometry x="-95" y="600" width="150" height="40" as="geometry"/>
                </mxCell>
                <mxCell id="ekU-A9TEw424ASgc0N8K-0" style="edgeStyle=orthogonalEdgeStyle;rounded=0;orthogonalLoop=1;jettySize=auto;html=1;entryX=0.16;entryY=0.022;entryDx=0;entryDy=0;entryPerimeter=0;" parent="Cj-LbPKbuyz0d0K42BQ3-1" source="J5le03PTGeUCgLsyB9Ag-3" target="CyN0C69dDbhaPe7vFzdz-10" edge="1">
                    <mxGeometry relative="1" as="geometry">
                        <Array as="points">
                            <mxPoint x="-20" y="900"/>
                            <mxPoint x="292" y="900"/>
                        </Array>
                    </mxGeometry>
                </mxCell>
                <mxCell id="J5le03PTGeUCgLsyB9Ag-3" value="Add to respective table" style="rounded=1;whiteSpace=wrap;html=1;fillColor=#f8cecc;strokeColor=#b85450;" parent="Cj-LbPKbuyz0d0K42BQ3-1" vertex="1">
                    <mxGeometry x="-95" y="680" width="150" height="40" as="geometry"/>
                </mxCell>
                <mxCell id="J5le03PTGeUCgLsyB9Ag-4" style="edgeStyle=orthogonalEdgeStyle;rounded=0;orthogonalLoop=1;jettySize=auto;html=1;entryX=0.5;entryY=0;entryDx=0;entryDy=0;" parent="Cj-LbPKbuyz0d0K42BQ3-1" source="J5le03PTGeUCgLsyB9Ag-5" target="J5le03PTGeUCgLsyB9Ag-12" edge="1">
                    <mxGeometry relative="1" as="geometry">
                        <mxPoint x="275" y="490" as="targetPoint"/>
                    </mxGeometry>
                </mxCell>
                <mxCell id="J5le03PTGeUCgLsyB9Ag-5" value="Click remove button" style="rounded=1;whiteSpace=wrap;html=1;fillColor=#dae8fc;strokeColor=#6c8ebf;" parent="Cj-LbPKbuyz0d0K42BQ3-1" vertex="1">
                    <mxGeometry x="205" y="390" width="140" height="40" as="geometry"/>
                </mxCell>
                <mxCell id="ekU-A9TEw424ASgc0N8K-1" style="edgeStyle=orthogonalEdgeStyle;rounded=0;orthogonalLoop=1;jettySize=auto;html=1;entryX=0.351;entryY=-0.005;entryDx=0;entryDy=0;entryPerimeter=0;" parent="Cj-LbPKbuyz0d0K42BQ3-1" source="J5le03PTGeUCgLsyB9Ag-12" target="CyN0C69dDbhaPe7vFzdz-10" edge="1">
                    <mxGeometry relative="1" as="geometry">
                        <Array as="points">
                            <mxPoint x="275" y="900"/>
                            <mxPoint x="330" y="900"/>
                        </Array>
                    </mxGeometry>
                </mxCell>
                <mxCell id="J5le03PTGeUCgLsyB9Ag-12" value="Remove from respective table" style="rounded=1;whiteSpace=wrap;html=1;fillColor=#dae8fc;strokeColor=#6c8ebf;" parent="Cj-LbPKbuyz0d0K42BQ3-1" vertex="1">
                    <mxGeometry x="187.5" y="610" width="175" height="40" as="geometry"/>
                </mxCell>
                <mxCell id="TcULU_LW6IlUQcUi-L3m-1" style="edgeStyle=orthogonalEdgeStyle;rounded=0;orthogonalLoop=1;jettySize=auto;html=1;entryX=0.5;entryY=0;entryDx=0;entryDy=0;" parent="Cj-LbPKbuyz0d0K42BQ3-1" source="TcULU_LW6IlUQcUi-L3m-0" target="69hCHuzmqdWGX1qRL9Uy-1" edge="1">
                    <mxGeometry relative="1" as="geometry"/>
                </mxCell>
                <mxCell id="TcULU_LW6IlUQcUi-L3m-0" value="Add entity" style="rounded=1;whiteSpace=wrap;html=1;fillColor=#f8cecc;strokeColor=#b85450;" parent="Cj-LbPKbuyz0d0K42BQ3-1" vertex="1">
                    <mxGeometry x="-90" y="290" width="140" height="40" as="geometry"/>
                </mxCell>
                <mxCell id="TcULU_LW6IlUQcUi-L3m-2" value="Remove entity" style="rounded=1;whiteSpace=wrap;html=1;fillColor=#dae8fc;strokeColor=#6c8ebf;" parent="Cj-LbPKbuyz0d0K42BQ3-1" vertex="1">
                    <mxGeometry x="205" y="290" width="140" height="40" as="geometry"/>
                </mxCell>
                <mxCell id="TcULU_LW6IlUQcUi-L3m-3" style="edgeStyle=orthogonalEdgeStyle;rounded=0;orthogonalLoop=1;jettySize=auto;html=1;entryX=0.5;entryY=0;entryDx=0;entryDy=0;exitX=0.5;exitY=1;exitDx=0;exitDy=0;" parent="Cj-LbPKbuyz0d0K42BQ3-1" source="TcULU_LW6IlUQcUi-L3m-2" target="J5le03PTGeUCgLsyB9Ag-5" edge="1">
                    <mxGeometry relative="1" as="geometry">
                        <mxPoint x="-25" y="340" as="sourcePoint"/>
                        <mxPoint x="-25" y="390" as="targetPoint"/>
                    </mxGeometry>
                </mxCell>
                <mxCell id="TcULU_LW6IlUQcUi-L3m-4" value="No" style="text;html=1;align=center;verticalAlign=middle;resizable=0;points=[];autosize=1;strokeColor=none;" parent="Cj-LbPKbuyz0d0K42BQ3-1" vertex="1">
                    <mxGeometry x="-180" y="520" width="30" height="20" as="geometry"/>
                </mxCell>
                <mxCell id="TcULU_LW6IlUQcUi-L3m-5" value="Yes" style="text;html=1;align=center;verticalAlign=middle;resizable=0;points=[];autosize=1;strokeColor=none;" parent="Cj-LbPKbuyz0d0K42BQ3-1" vertex="1">
                    <mxGeometry x="-50" y="560" width="30" height="20" as="geometry"/>
                </mxCell>
                <mxCell id="qiReesVCIodHOXlRmErm-11" style="edgeStyle=orthogonalEdgeStyle;rounded=0;orthogonalLoop=1;jettySize=auto;html=1;" parent="Cj-LbPKbuyz0d0K42BQ3-1" source="qiReesVCIodHOXlRmErm-12" edge="1">
                    <mxGeometry relative="1" as="geometry">
                        <mxPoint x="595" y="490" as="targetPoint"/>
                    </mxGeometry>
                </mxCell>
                <mxCell id="qiReesVCIodHOXlRmErm-12" value="Enter entity ID" style="rounded=1;whiteSpace=wrap;html=1;fillColor=#fff2cc;strokeColor=#d6b656;" parent="Cj-LbPKbuyz0d0K42BQ3-1" vertex="1">
                    <mxGeometry x="525" y="390" width="140" height="40" as="geometry"/>
                </mxCell>
                <mxCell id="qiReesVCIodHOXlRmErm-13" style="edgeStyle=orthogonalEdgeStyle;rounded=0;orthogonalLoop=1;jettySize=auto;html=1;entryX=0.5;entryY=1;entryDx=0;entryDy=0;exitX=0;exitY=0.5;exitDx=0;exitDy=0;" parent="Cj-LbPKbuyz0d0K42BQ3-1" source="qiReesVCIodHOXlRmErm-15" target="qiReesVCIodHOXlRmErm-17" edge="1">
                    <mxGeometry relative="1" as="geometry">
                        <mxPoint x="345" y="560" as="targetPoint"/>
                    </mxGeometry>
                </mxCell>
                <mxCell id="qiReesVCIodHOXlRmErm-14" style="edgeStyle=orthogonalEdgeStyle;rounded=0;orthogonalLoop=1;jettySize=auto;html=1;entryX=0.5;entryY=0;entryDx=0;entryDy=0;" parent="Cj-LbPKbuyz0d0K42BQ3-1" source="qiReesVCIodHOXlRmErm-15" target="CyN0C69dDbhaPe7vFzdz-3" edge="1">
                    <mxGeometry relative="1" as="geometry">
                        <mxPoint x="595" y="710" as="targetPoint"/>
                    </mxGeometry>
                </mxCell>
                <mxCell id="qiReesVCIodHOXlRmErm-15" value="Is entity at the table?" style="rhombus;whiteSpace=wrap;html=1;fillColor=#fff2cc;strokeColor=#d6b656;" parent="Cj-LbPKbuyz0d0K42BQ3-1" vertex="1">
                    <mxGeometry x="495" y="590" width="200" height="70" as="geometry"/>
                </mxCell>
                <mxCell id="qiReesVCIodHOXlRmErm-16" style="edgeStyle=orthogonalEdgeStyle;rounded=0;orthogonalLoop=1;jettySize=auto;html=1;exitX=0.5;exitY=0;exitDx=0;exitDy=0;entryX=0;entryY=0.5;entryDx=0;entryDy=0;" parent="Cj-LbPKbuyz0d0K42BQ3-1" source="qiReesVCIodHOXlRmErm-17" target="qiReesVCIodHOXlRmErm-12" edge="1">
                    <mxGeometry relative="1" as="geometry"/>
                </mxCell>
                <mxCell id="qiReesVCIodHOXlRmErm-17" value="Display error" style="rounded=1;whiteSpace=wrap;html=1;fillColor=#fff2cc;strokeColor=#d6b656;" parent="Cj-LbPKbuyz0d0K42BQ3-1" vertex="1">
                    <mxGeometry x="375" y="450" width="120" height="40" as="geometry"/>
                </mxCell>
                <mxCell id="qiReesVCIodHOXlRmErm-19" value="View entity" style="rounded=1;whiteSpace=wrap;html=1;fillColor=#fff2cc;strokeColor=#d6b656;" parent="Cj-LbPKbuyz0d0K42BQ3-1" vertex="1">
                    <mxGeometry x="525" y="290" width="140" height="40" as="geometry"/>
                </mxCell>
                <mxCell id="qiReesVCIodHOXlRmErm-20" style="edgeStyle=orthogonalEdgeStyle;rounded=0;orthogonalLoop=1;jettySize=auto;html=1;entryX=0.5;entryY=0;entryDx=0;entryDy=0;exitX=0.5;exitY=1;exitDx=0;exitDy=0;" parent="Cj-LbPKbuyz0d0K42BQ3-1" source="qiReesVCIodHOXlRmErm-19" target="qiReesVCIodHOXlRmErm-12" edge="1">
                    <mxGeometry relative="1" as="geometry">
                        <mxPoint x="295" y="350" as="sourcePoint"/>
                        <mxPoint x="295" y="400" as="targetPoint"/>
                    </mxGeometry>
                </mxCell>
                <mxCell id="qiReesVCIodHOXlRmErm-21" value="Yes" style="text;html=1;align=center;verticalAlign=middle;resizable=0;points=[];autosize=1;strokeColor=none;" parent="Cj-LbPKbuyz0d0K42BQ3-1" vertex="1">
                    <mxGeometry x="565" y="670" width="30" height="20" as="geometry"/>
                </mxCell>
                <mxCell id="qiReesVCIodHOXlRmErm-22" value="No" style="text;html=1;align=center;verticalAlign=middle;resizable=0;points=[];autosize=1;strokeColor=none;" parent="Cj-LbPKbuyz0d0K42BQ3-1" vertex="1">
                    <mxGeometry x="445" y="630" width="30" height="20" as="geometry"/>
                </mxCell>
                <mxCell id="CyN0C69dDbhaPe7vFzdz-1" style="edgeStyle=orthogonalEdgeStyle;rounded=0;orthogonalLoop=1;jettySize=auto;html=1;entryX=0.5;entryY=0;entryDx=0;entryDy=0;" parent="Cj-LbPKbuyz0d0K42BQ3-1" source="CyN0C69dDbhaPe7vFzdz-0" target="qiReesVCIodHOXlRmErm-15" edge="1">
                    <mxGeometry relative="1" as="geometry"/>
                </mxCell>
                <mxCell id="CyN0C69dDbhaPe7vFzdz-0" value="Enter data being retrieved" style="rounded=1;whiteSpace=wrap;html=1;fillColor=#fff2cc;strokeColor=#d6b656;" parent="Cj-LbPKbuyz0d0K42BQ3-1" vertex="1">
                    <mxGeometry x="512.5" y="490" width="165" height="40" as="geometry"/>
                </mxCell>
                <mxCell id="CyN0C69dDbhaPe7vFzdz-2" style="edgeStyle=orthogonalEdgeStyle;rounded=0;orthogonalLoop=1;jettySize=auto;html=1;entryX=0.5;entryY=0;entryDx=0;entryDy=0;" parent="Cj-LbPKbuyz0d0K42BQ3-1" source="CyN0C69dDbhaPe7vFzdz-3" target="CyN0C69dDbhaPe7vFzdz-4" edge="1">
                    <mxGeometry relative="1" as="geometry">
                        <mxPoint x="600" y="890" as="targetPoint"/>
                    </mxGeometry>
                </mxCell>
                <mxCell id="CyN0C69dDbhaPe7vFzdz-6" style="edgeStyle=orthogonalEdgeStyle;rounded=0;orthogonalLoop=1;jettySize=auto;html=1;exitX=0;exitY=0.5;exitDx=0;exitDy=0;entryX=0.5;entryY=1;entryDx=0;entryDy=0;" parent="Cj-LbPKbuyz0d0K42BQ3-1" source="CyN0C69dDbhaPe7vFzdz-3" target="qiReesVCIodHOXlRmErm-17" edge="1">
                    <mxGeometry relative="1" as="geometry"/>
                </mxCell>
                <mxCell id="CyN0C69dDbhaPe7vFzdz-3" value="Is the data part of the entity?" style="rhombus;whiteSpace=wrap;html=1;fillColor=#fff2cc;strokeColor=#d6b656;" parent="Cj-LbPKbuyz0d0K42BQ3-1" vertex="1">
                    <mxGeometry x="498.75" y="720" width="192.5" height="70" as="geometry"/>
                </mxCell>
                <mxCell id="ekU-A9TEw424ASgc0N8K-2" style="edgeStyle=orthogonalEdgeStyle;rounded=0;orthogonalLoop=1;jettySize=auto;html=1;exitX=0.5;exitY=1;exitDx=0;exitDy=0;entryX=0.629;entryY=0.078;entryDx=0;entryDy=0;entryPerimeter=0;" parent="Cj-LbPKbuyz0d0K42BQ3-1" source="CyN0C69dDbhaPe7vFzdz-4" target="CyN0C69dDbhaPe7vFzdz-10" edge="1">
                    <mxGeometry relative="1" as="geometry">
                        <Array as="points">
                            <mxPoint x="595" y="910"/>
                            <mxPoint x="386" y="910"/>
                        </Array>
                    </mxGeometry>
                </mxCell>
                <mxCell id="CyN0C69dDbhaPe7vFzdz-4" value="Display Data" style="rounded=1;whiteSpace=wrap;html=1;fillColor=#fff2cc;strokeColor=#d6b656;" parent="Cj-LbPKbuyz0d0K42BQ3-1" vertex="1">
                    <mxGeometry x="548.75" y="840" width="92.5" height="40" as="geometry"/>
                </mxCell>
                <mxCell id="CyN0C69dDbhaPe7vFzdz-5" value="Yes" style="text;html=1;align=center;verticalAlign=middle;resizable=0;points=[];autosize=1;strokeColor=none;" parent="Cj-LbPKbuyz0d0K42BQ3-1" vertex="1">
                    <mxGeometry x="560" y="810" width="30" height="20" as="geometry"/>
                </mxCell>
                <mxCell id="CyN0C69dDbhaPe7vFzdz-7" value="No" style="text;html=1;align=center;verticalAlign=middle;resizable=0;points=[];autosize=1;strokeColor=none;" parent="Cj-LbPKbuyz0d0K42BQ3-1" vertex="1">
                    <mxGeometry x="445" y="730" width="30" height="20" as="geometry"/>
                </mxCell>
                <mxCell id="CyN0C69dDbhaPe7vFzdz-9" value="" style="ellipse;whiteSpace=wrap;html=1;fontSize=14;" parent="Cj-LbPKbuyz0d0K42BQ3-1" vertex="1">
                    <mxGeometry x="320" y="1030" width="80" height="80" as="geometry"/>
                </mxCell>
                <mxCell id="CyN0C69dDbhaPe7vFzdz-11" style="edgeStyle=orthogonalEdgeStyle;rounded=0;orthogonalLoop=1;jettySize=auto;html=1;exitX=0.5;exitY=1;exitDx=0;exitDy=0;entryX=0.5;entryY=0;entryDx=0;entryDy=0;" parent="Cj-LbPKbuyz0d0K42BQ3-1" source="CyN0C69dDbhaPe7vFzdz-10" target="CyN0C69dDbhaPe7vFzdz-9" edge="1">
                    <mxGeometry relative="1" as="geometry"/>
                </mxCell>
                <mxCell id="CyN0C69dDbhaPe7vFzdz-10" value="" style="rounded=0;whiteSpace=wrap;html=1;fontSize=14;strokeColor=#666666;fontColor=#333333;fillColor=#000000;" parent="Cj-LbPKbuyz0d0K42BQ3-1" vertex="1">
                    <mxGeometry x="260" y="950" width="200" height="20" as="geometry"/>
                </mxCell>
                <mxCell id="CyN0C69dDbhaPe7vFzdz-12" style="edgeStyle=orthogonalEdgeStyle;rounded=0;orthogonalLoop=1;jettySize=auto;html=1;" parent="Cj-LbPKbuyz0d0K42BQ3-1" source="CyN0C69dDbhaPe7vFzdz-13" edge="1">
                    <mxGeometry relative="1" as="geometry">
                        <mxPoint x="939" y="497" as="targetPoint"/>
                    </mxGeometry>
                </mxCell>
                <mxCell id="CyN0C69dDbhaPe7vFzdz-13" value="Enter entity ID" style="rounded=1;whiteSpace=wrap;html=1;fillColor=#d5e8d4;strokeColor=#82b366;" parent="Cj-LbPKbuyz0d0K42BQ3-1" vertex="1">
                    <mxGeometry x="869" y="397" width="140" height="40" as="geometry"/>
                </mxCell>
                <mxCell id="CyN0C69dDbhaPe7vFzdz-14" style="edgeStyle=orthogonalEdgeStyle;rounded=0;orthogonalLoop=1;jettySize=auto;html=1;entryX=0.5;entryY=1;entryDx=0;entryDy=0;exitX=0;exitY=0.5;exitDx=0;exitDy=0;" parent="Cj-LbPKbuyz0d0K42BQ3-1" source="CyN0C69dDbhaPe7vFzdz-16" target="CyN0C69dDbhaPe7vFzdz-18" edge="1">
                    <mxGeometry relative="1" as="geometry">
                        <mxPoint x="689" y="567" as="targetPoint"/>
                    </mxGeometry>
                </mxCell>
                <mxCell id="CyN0C69dDbhaPe7vFzdz-15" style="edgeStyle=orthogonalEdgeStyle;rounded=0;orthogonalLoop=1;jettySize=auto;html=1;entryX=0.5;entryY=0;entryDx=0;entryDy=0;" parent="Cj-LbPKbuyz0d0K42BQ3-1" source="CyN0C69dDbhaPe7vFzdz-16" target="CyN0C69dDbhaPe7vFzdz-27" edge="1">
                    <mxGeometry relative="1" as="geometry">
                        <mxPoint x="939" y="717" as="targetPoint"/>
                    </mxGeometry>
                </mxCell>
                <mxCell id="CyN0C69dDbhaPe7vFzdz-16" value="Is entity at the table?" style="rhombus;whiteSpace=wrap;html=1;fillColor=#d5e8d4;strokeColor=#82b366;" parent="Cj-LbPKbuyz0d0K42BQ3-1" vertex="1">
                    <mxGeometry x="839" y="597" width="200" height="70" as="geometry"/>
                </mxCell>
                <mxCell id="CyN0C69dDbhaPe7vFzdz-17" style="edgeStyle=orthogonalEdgeStyle;rounded=0;orthogonalLoop=1;jettySize=auto;html=1;exitX=0.5;exitY=0;exitDx=0;exitDy=0;entryX=0;entryY=0.5;entryDx=0;entryDy=0;" parent="Cj-LbPKbuyz0d0K42BQ3-1" source="CyN0C69dDbhaPe7vFzdz-18" target="CyN0C69dDbhaPe7vFzdz-13" edge="1">
                    <mxGeometry relative="1" as="geometry"/>
                </mxCell>
                <mxCell id="CyN0C69dDbhaPe7vFzdz-18" value="Display error" style="rounded=1;whiteSpace=wrap;html=1;fillColor=#d5e8d4;strokeColor=#82b366;" parent="Cj-LbPKbuyz0d0K42BQ3-1" vertex="1">
                    <mxGeometry x="719" y="457" width="120" height="40" as="geometry"/>
                </mxCell>
                <mxCell id="CyN0C69dDbhaPe7vFzdz-19" value="&lt;p style=&quot;line-height: 120%&quot;&gt;Update entity&lt;/p&gt;" style="rounded=1;whiteSpace=wrap;html=1;fillColor=#d5e8d4;strokeColor=#82b366;" parent="Cj-LbPKbuyz0d0K42BQ3-1" vertex="1">
                    <mxGeometry x="870" y="290" width="140" height="40" as="geometry"/>
                </mxCell>
                <mxCell id="CyN0C69dDbhaPe7vFzdz-20" style="edgeStyle=orthogonalEdgeStyle;rounded=0;orthogonalLoop=1;jettySize=auto;html=1;entryX=0.5;entryY=0;entryDx=0;entryDy=0;exitX=0.5;exitY=1;exitDx=0;exitDy=0;" parent="Cj-LbPKbuyz0d0K42BQ3-1" source="CyN0C69dDbhaPe7vFzdz-19" target="CyN0C69dDbhaPe7vFzdz-13" edge="1">
                    <mxGeometry relative="1" as="geometry">
                        <mxPoint x="640" y="360" as="sourcePoint"/>
                        <mxPoint x="640" y="410" as="targetPoint"/>
                    </mxGeometry>
                </mxCell>
                <mxCell id="CyN0C69dDbhaPe7vFzdz-21" value="Yes" style="text;html=1;align=center;verticalAlign=middle;resizable=0;points=[];autosize=1;strokeColor=none;" parent="Cj-LbPKbuyz0d0K42BQ3-1" vertex="1">
                    <mxGeometry x="909" y="677" width="30" height="20" as="geometry"/>
                </mxCell>
                <mxCell id="CyN0C69dDbhaPe7vFzdz-22" value="No" style="text;html=1;align=center;verticalAlign=middle;resizable=0;points=[];autosize=1;strokeColor=none;" parent="Cj-LbPKbuyz0d0K42BQ3-1" vertex="1">
                    <mxGeometry x="789" y="637" width="30" height="20" as="geometry"/>
                </mxCell>
                <mxCell id="CyN0C69dDbhaPe7vFzdz-23" style="edgeStyle=orthogonalEdgeStyle;rounded=0;orthogonalLoop=1;jettySize=auto;html=1;entryX=0.5;entryY=0;entryDx=0;entryDy=0;" parent="Cj-LbPKbuyz0d0K42BQ3-1" source="CyN0C69dDbhaPe7vFzdz-24" target="CyN0C69dDbhaPe7vFzdz-16" edge="1">
                    <mxGeometry relative="1" as="geometry"/>
                </mxCell>
                <mxCell id="CyN0C69dDbhaPe7vFzdz-24" value="Enter data being updated" style="rounded=1;whiteSpace=wrap;html=1;fillColor=#d5e8d4;strokeColor=#82b366;" parent="Cj-LbPKbuyz0d0K42BQ3-1" vertex="1">
                    <mxGeometry x="856.5" y="497" width="165" height="40" as="geometry"/>
                </mxCell>
                <mxCell id="CyN0C69dDbhaPe7vFzdz-25" style="edgeStyle=orthogonalEdgeStyle;rounded=0;orthogonalLoop=1;jettySize=auto;html=1;entryX=0.5;entryY=0;entryDx=0;entryDy=0;" parent="Cj-LbPKbuyz0d0K42BQ3-1" source="CyN0C69dDbhaPe7vFzdz-27" target="CyN0C69dDbhaPe7vFzdz-28" edge="1">
                    <mxGeometry relative="1" as="geometry">
                        <mxPoint x="944" y="897" as="targetPoint"/>
                    </mxGeometry>
                </mxCell>
                <mxCell id="CyN0C69dDbhaPe7vFzdz-26" style="edgeStyle=orthogonalEdgeStyle;rounded=0;orthogonalLoop=1;jettySize=auto;html=1;exitX=0;exitY=0.5;exitDx=0;exitDy=0;entryX=0.5;entryY=1;entryDx=0;entryDy=0;" parent="Cj-LbPKbuyz0d0K42BQ3-1" source="CyN0C69dDbhaPe7vFzdz-27" target="CyN0C69dDbhaPe7vFzdz-18" edge="1">
                    <mxGeometry relative="1" as="geometry"/>
                </mxCell>
                <mxCell id="CyN0C69dDbhaPe7vFzdz-27" value="Is the data valid?" style="rhombus;whiteSpace=wrap;html=1;fillColor=#d5e8d4;strokeColor=#82b366;" parent="Cj-LbPKbuyz0d0K42BQ3-1" vertex="1">
                    <mxGeometry x="842.75" y="727" width="192.5" height="70" as="geometry"/>
                </mxCell>
                <mxCell id="ekU-A9TEw424ASgc0N8K-3" style="edgeStyle=orthogonalEdgeStyle;rounded=0;orthogonalLoop=1;jettySize=auto;html=1;entryX=0.883;entryY=0.105;entryDx=0;entryDy=0;entryPerimeter=0;" parent="Cj-LbPKbuyz0d0K42BQ3-1" source="CyN0C69dDbhaPe7vFzdz-28" target="CyN0C69dDbhaPe7vFzdz-10" edge="1">
                    <mxGeometry relative="1" as="geometry">
                        <Array as="points">
                            <mxPoint x="939" y="910"/>
                            <mxPoint x="437" y="910"/>
                        </Array>
                    </mxGeometry>
                </mxCell>
                <mxCell id="CyN0C69dDbhaPe7vFzdz-28" value="Update data" style="rounded=1;whiteSpace=wrap;html=1;fillColor=#d5e8d4;strokeColor=#82b366;" parent="Cj-LbPKbuyz0d0K42BQ3-1" vertex="1">
                    <mxGeometry x="892.75" y="847" width="92.5" height="40" as="geometry"/>
                </mxCell>
                <mxCell id="CyN0C69dDbhaPe7vFzdz-29" value="Yes" style="text;html=1;align=center;verticalAlign=middle;resizable=0;points=[];autosize=1;strokeColor=none;" parent="Cj-LbPKbuyz0d0K42BQ3-1" vertex="1">
                    <mxGeometry x="904" y="817" width="30" height="20" as="geometry"/>
                </mxCell>
                <mxCell id="CyN0C69dDbhaPe7vFzdz-30" value="No" style="text;html=1;align=center;verticalAlign=middle;resizable=0;points=[];autosize=1;strokeColor=none;" parent="Cj-LbPKbuyz0d0K42BQ3-1" vertex="1">
                    <mxGeometry x="789" y="737" width="30" height="20" as="geometry"/>
                </mxCell>
            </root>
        </mxGraphModel>
    </diagram>
    <diagram name="Usecase" id="F3pSex1-uXV6aBM5cghh">
        <mxGraphModel dx="477" dy="533" grid="1" gridSize="10" guides="1" tooltips="1" connect="1" arrows="1" fold="1" page="1" pageScale="1" pageWidth="827" pageHeight="1169" background="none" math="0" shadow="0">
            <root>
                <mxCell id="byVPkAh24s982Pa5DdWu-0"/>
                <mxCell id="byVPkAh24s982Pa5DdWu-1" parent="byVPkAh24s982Pa5DdWu-0"/>
                <mxCell id="byVPkAh24s982Pa5DdWu-2" value="Admin" style="shape=umlFrame;whiteSpace=wrap;html=1;width=100;height=30;" parent="byVPkAh24s982Pa5DdWu-1" vertex="1">
                    <mxGeometry x="130" y="100" width="610" height="480" as="geometry"/>
                </mxCell>
                <mxCell id="byVPkAh24s982Pa5DdWu-4" value="Enter Entity information" style="ellipse;whiteSpace=wrap;html=1;" parent="byVPkAh24s982Pa5DdWu-1" vertex="1">
                    <mxGeometry x="180" y="320.76" width="170" height="40" as="geometry"/>
                </mxCell>
                <mxCell id="byVPkAh24s982Pa5DdWu-7" value="&lt;font style=&quot;font-size: 17px&quot;&gt;Add Entity&lt;/font&gt;" style="ellipse;whiteSpace=wrap;html=1;fillColor=#f8cecc;strokeColor=#b85450;" parent="byVPkAh24s982Pa5DdWu-1" vertex="1">
                    <mxGeometry x="205" y="210.76" width="120" height="40" as="geometry"/>
                </mxCell>
                <mxCell id="byVPkAh24s982Pa5DdWu-19" style="rounded=1;orthogonalLoop=1;jettySize=auto;html=1;exitX=1;exitY=0.3333333333333333;exitDx=0;exitDy=0;exitPerimeter=0;entryX=0;entryY=0.5;entryDx=0;entryDy=0;startArrow=none;startFill=0;endArrow=none;endFill=0;endSize=11;" parent="byVPkAh24s982Pa5DdWu-1" source="byVPkAh24s982Pa5DdWu-20" target="byVPkAh24s982Pa5DdWu-7" edge="1">
                    <mxGeometry relative="1" as="geometry">
                        <Array as="points">
                            <mxPoint x="160" y="231"/>
                        </Array>
                    </mxGeometry>
                </mxCell>
                <mxCell id="T3Puy5VhK_Lr6lj-sdDJ-5" style="edgeStyle=none;rounded=1;orthogonalLoop=1;jettySize=auto;html=1;exitX=1;exitY=0.3333333333333333;exitDx=0;exitDy=0;exitPerimeter=0;entryX=0;entryY=0.5;entryDx=0;entryDy=0;fontSize=14;fontColor=#FFFFFF;startArrow=none;startFill=0;endArrow=none;endFill=0;" parent="byVPkAh24s982Pa5DdWu-1" source="byVPkAh24s982Pa5DdWu-20" target="byVPkAh24s982Pa5DdWu-26" edge="1">
                    <mxGeometry relative="1" as="geometry">
                        <Array as="points">
                            <mxPoint x="140" y="191"/>
                        </Array>
                    </mxGeometry>
                </mxCell>
                <mxCell id="T3Puy5VhK_Lr6lj-sdDJ-12" style="edgeStyle=none;rounded=1;orthogonalLoop=1;jettySize=auto;html=1;exitX=1;exitY=0.3333333333333333;exitDx=0;exitDy=0;exitPerimeter=0;entryX=0;entryY=0.5;entryDx=0;entryDy=0;fontSize=14;fontColor=#FFFFFF;startArrow=none;startFill=0;endArrow=none;endFill=0;" parent="byVPkAh24s982Pa5DdWu-1" source="byVPkAh24s982Pa5DdWu-20" target="T3Puy5VhK_Lr6lj-sdDJ-6" edge="1">
                    <mxGeometry relative="1" as="geometry">
                        <Array as="points">
                            <mxPoint x="110" y="470"/>
                        </Array>
                    </mxGeometry>
                </mxCell>
                <mxCell id="T3Puy5VhK_Lr6lj-sdDJ-16" style="edgeStyle=none;rounded=1;orthogonalLoop=1;jettySize=auto;html=1;exitX=1;exitY=0.3333333333333333;exitDx=0;exitDy=0;exitPerimeter=0;entryX=0;entryY=0.5;entryDx=0;entryDy=0;fontSize=14;fontColor=#FFFFFF;startArrow=none;startFill=0;endArrow=none;endFill=0;" parent="byVPkAh24s982Pa5DdWu-1" source="byVPkAh24s982Pa5DdWu-20" target="T3Puy5VhK_Lr6lj-sdDJ-15" edge="1">
                    <mxGeometry relative="1" as="geometry">
                        <Array as="points">
                            <mxPoint x="120" y="150"/>
                        </Array>
                    </mxGeometry>
                </mxCell>
                <mxCell id="T3Puy5VhK_Lr6lj-sdDJ-23" style="edgeStyle=none;rounded=1;orthogonalLoop=1;jettySize=auto;html=1;exitX=1;exitY=0.3333333333333333;exitDx=0;exitDy=0;exitPerimeter=0;entryX=0;entryY=0.5;entryDx=0;entryDy=0;fontSize=14;fontColor=#FFFFFF;startArrow=none;startFill=0;endArrow=none;endFill=0;" parent="byVPkAh24s982Pa5DdWu-1" source="byVPkAh24s982Pa5DdWu-20" target="T3Puy5VhK_Lr6lj-sdDJ-22" edge="1">
                    <mxGeometry relative="1" as="geometry">
                        <Array as="points">
                            <mxPoint x="120" y="420"/>
                        </Array>
                    </mxGeometry>
                </mxCell>
                <mxCell id="byVPkAh24s982Pa5DdWu-20" value="User" style="shape=umlActor;verticalLabelPosition=bottom;verticalAlign=top;html=1;" parent="byVPkAh24s982Pa5DdWu-1" vertex="1">
                    <mxGeometry x="50" y="370" width="40" height="80" as="geometry"/>
                </mxCell>
                <mxCell id="byVPkAh24s982Pa5DdWu-21" value="&amp;lt;&amp;lt;Include&amp;gt;&amp;gt;" style="text;html=1;strokeColor=none;align=center;verticalAlign=middle;whiteSpace=wrap;rounded=0;fillColor=#ffffff;" parent="byVPkAh24s982Pa5DdWu-1" vertex="1">
                    <mxGeometry x="245" y="270.76" width="40" height="20" as="geometry"/>
                </mxCell>
                <mxCell id="byVPkAh24s982Pa5DdWu-26" value="&lt;font style=&quot;font-size: 17px&quot;&gt;Remove Entity&lt;/font&gt;" style="ellipse;whiteSpace=wrap;html=1;fillColor=#f8cecc;strokeColor=#b85450;" parent="byVPkAh24s982Pa5DdWu-1" vertex="1">
                    <mxGeometry x="340" y="170.76" width="155" height="40" as="geometry"/>
                </mxCell>
                <mxCell id="byVPkAh24s982Pa5DdWu-37" style="edgeStyle=none;rounded=1;orthogonalLoop=1;jettySize=auto;html=1;exitX=0.5;exitY=0;exitDx=0;exitDy=0;entryX=0.5;entryY=1;entryDx=0;entryDy=0;startArrow=classic;startFill=1;endArrow=none;endFill=0;dashed=1;" parent="byVPkAh24s982Pa5DdWu-1" source="byVPkAh24s982Pa5DdWu-38" target="byVPkAh24s982Pa5DdWu-26" edge="1">
                    <mxGeometry relative="1" as="geometry"/>
                </mxCell>
                <mxCell id="byVPkAh24s982Pa5DdWu-38" value="Specify entity ID" style="ellipse;whiteSpace=wrap;html=1;" parent="byVPkAh24s982Pa5DdWu-1" vertex="1">
                    <mxGeometry x="356.25" y="290.76" width="122.5" height="39.24" as="geometry"/>
                </mxCell>
                <mxCell id="u1ktdJs4U7ZjMvope3xf-2" style="edgeStyle=none;rounded=0;orthogonalLoop=1;jettySize=auto;html=1;exitX=0.5;exitY=1;exitDx=0;exitDy=0;dashed=1;" parent="byVPkAh24s982Pa5DdWu-1" source="byVPkAh24s982Pa5DdWu-7" edge="1">
                    <mxGeometry relative="1" as="geometry">
                        <mxPoint x="275" y="370.76" as="sourcePoint"/>
                        <mxPoint x="265" y="320" as="targetPoint"/>
                    </mxGeometry>
                </mxCell>
                <mxCell id="I40IXqIIhzKwg1b5VlEO-0" value="" style="edgeStyle=orthogonalEdgeStyle;rounded=0;orthogonalLoop=1;jettySize=auto;html=1;endArrow=none;endFill=0;" parent="byVPkAh24s982Pa5DdWu-1" source="T3Puy5VhK_Lr6lj-sdDJ-4" target="byVPkAh24s982Pa5DdWu-38" edge="1">
                    <mxGeometry relative="1" as="geometry"/>
                </mxCell>
                <mxCell id="T3Puy5VhK_Lr6lj-sdDJ-4" value="&amp;lt;&amp;lt;Include&amp;gt;&amp;gt;" style="text;html=1;strokeColor=none;align=center;verticalAlign=middle;whiteSpace=wrap;rounded=0;fillColor=#ffffff;" parent="byVPkAh24s982Pa5DdWu-1" vertex="1">
                    <mxGeometry x="397.5" y="240" width="40" height="20" as="geometry"/>
                </mxCell>
                <mxCell id="T3Puy5VhK_Lr6lj-sdDJ-6" value="&lt;font style=&quot;font-size: 17px&quot;&gt;Change Entity&lt;/font&gt;" style="ellipse;whiteSpace=wrap;html=1;fillColor=#f8cecc;strokeColor=#b85450;" parent="byVPkAh24s982Pa5DdWu-1" vertex="1">
                    <mxGeometry x="260" y="450" width="120" height="40" as="geometry"/>
                </mxCell>
                <mxCell id="T3Puy5VhK_Lr6lj-sdDJ-7" value="Enter information being updated" style="ellipse;whiteSpace=wrap;html=1;" parent="byVPkAh24s982Pa5DdWu-1" vertex="1">
                    <mxGeometry x="329" y="530" width="190" height="40" as="geometry"/>
                </mxCell>
                <mxCell id="T3Puy5VhK_Lr6lj-sdDJ-8" value="&amp;lt;&amp;lt;Include&amp;gt;&amp;gt;" style="text;html=1;strokeColor=none;align=center;verticalAlign=middle;whiteSpace=wrap;rounded=0;fillColor=#ffffff;" parent="byVPkAh24s982Pa5DdWu-1" vertex="1">
                    <mxGeometry x="300" y="500" width="40" height="20" as="geometry"/>
                </mxCell>
                <mxCell id="T3Puy5VhK_Lr6lj-sdDJ-9" style="edgeStyle=none;rounded=0;orthogonalLoop=1;jettySize=auto;html=1;dashed=1;entryX=0.5;entryY=0;entryDx=0;entryDy=0;exitX=1;exitY=1;exitDx=0;exitDy=0;" parent="byVPkAh24s982Pa5DdWu-1" source="T3Puy5VhK_Lr6lj-sdDJ-6" target="T3Puy5VhK_Lr6lj-sdDJ-7" edge="1">
                    <mxGeometry relative="1" as="geometry">
                        <mxPoint x="265" y="460" as="sourcePoint"/>
                        <mxPoint x="265" y="529.24" as="targetPoint"/>
                    </mxGeometry>
                </mxCell>
                <mxCell id="T3Puy5VhK_Lr6lj-sdDJ-10" value="Specify entity being changed" style="ellipse;whiteSpace=wrap;html=1;" parent="byVPkAh24s982Pa5DdWu-1" vertex="1">
                    <mxGeometry x="140" y="530" width="170" height="40" as="geometry"/>
                </mxCell>
                <mxCell id="T3Puy5VhK_Lr6lj-sdDJ-11" style="edgeStyle=none;rounded=0;orthogonalLoop=1;jettySize=auto;html=1;exitX=0;exitY=1;exitDx=0;exitDy=0;dashed=1;entryX=0.5;entryY=0;entryDx=0;entryDy=0;" parent="byVPkAh24s982Pa5DdWu-1" source="T3Puy5VhK_Lr6lj-sdDJ-6" target="T3Puy5VhK_Lr6lj-sdDJ-10" edge="1">
                    <mxGeometry relative="1" as="geometry">
                        <mxPoint x="275" y="470" as="sourcePoint"/>
                        <mxPoint x="395" y="540" as="targetPoint"/>
                    </mxGeometry>
                </mxCell>
                <mxCell id="T3Puy5VhK_Lr6lj-sdDJ-15" value="&lt;font style=&quot;font-size: 17px&quot;&gt;View Entity&lt;/font&gt;" style="ellipse;whiteSpace=wrap;html=1;fillColor=#f8cecc;strokeColor=#b85450;" parent="byVPkAh24s982Pa5DdWu-1" vertex="1">
                    <mxGeometry x="540" y="130.76" width="120" height="40" as="geometry"/>
                </mxCell>
                <mxCell id="T3Puy5VhK_Lr6lj-sdDJ-17" style="edgeStyle=none;rounded=1;orthogonalLoop=1;jettySize=auto;html=1;exitX=0.5;exitY=0;exitDx=0;exitDy=0;entryX=0.5;entryY=1;entryDx=0;entryDy=0;startArrow=classic;startFill=1;endArrow=none;endFill=0;dashed=1;" parent="byVPkAh24s982Pa5DdWu-1" source="T3Puy5VhK_Lr6lj-sdDJ-18" target="T3Puy5VhK_Lr6lj-sdDJ-15" edge="1">
                    <mxGeometry relative="1" as="geometry">
                        <mxPoint x="577.75" y="201.51999999999998" as="targetPoint"/>
                    </mxGeometry>
                </mxCell>
                <mxCell id="T3Puy5VhK_Lr6lj-sdDJ-18" value="Specify entity ID" style="ellipse;whiteSpace=wrap;html=1;" parent="byVPkAh24s982Pa5DdWu-1" vertex="1">
                    <mxGeometry x="478.75" y="240" width="101.25" height="39.24" as="geometry"/>
                </mxCell>
                <mxCell id="T3Puy5VhK_Lr6lj-sdDJ-19" value="&amp;lt;&amp;lt;Include&amp;gt;&amp;gt;" style="text;html=1;strokeColor=none;align=center;verticalAlign=middle;whiteSpace=wrap;rounded=0;fillColor=#ffffff;" parent="byVPkAh24s982Pa5DdWu-1" vertex="1">
                    <mxGeometry x="580" y="190.76" width="40" height="20" as="geometry"/>
                </mxCell>
                <mxCell id="T3Puy5VhK_Lr6lj-sdDJ-20" value="Specify information" style="ellipse;whiteSpace=wrap;html=1;" parent="byVPkAh24s982Pa5DdWu-1" vertex="1">
                    <mxGeometry x="620" y="240" width="113.75" height="39.24" as="geometry"/>
                </mxCell>
                <mxCell id="T3Puy5VhK_Lr6lj-sdDJ-21" style="edgeStyle=none;rounded=1;orthogonalLoop=1;jettySize=auto;html=1;exitX=0.5;exitY=0;exitDx=0;exitDy=0;entryX=0.5;entryY=1;entryDx=0;entryDy=0;startArrow=classic;startFill=1;endArrow=none;endFill=0;dashed=1;" parent="byVPkAh24s982Pa5DdWu-1" source="T3Puy5VhK_Lr6lj-sdDJ-20" target="T3Puy5VhK_Lr6lj-sdDJ-15" edge="1">
                    <mxGeometry relative="1" as="geometry">
                        <mxPoint x="589" y="180.76" as="targetPoint"/>
                        <mxPoint x="539.375" y="250" as="sourcePoint"/>
                    </mxGeometry>
                </mxCell>
                <mxCell id="T3Puy5VhK_Lr6lj-sdDJ-22" value="&lt;font style=&quot;font-size: 17px&quot;&gt;Exchange Data&lt;/font&gt;" style="ellipse;whiteSpace=wrap;html=1;fillColor=#f8cecc;strokeColor=#b85450;" parent="byVPkAh24s982Pa5DdWu-1" vertex="1">
                    <mxGeometry x="520" y="400" width="160" height="40" as="geometry"/>
                </mxCell>
                <mxCell id="I40IXqIIhzKwg1b5VlEO-1" style="edgeStyle=none;rounded=1;orthogonalLoop=1;jettySize=auto;html=1;exitX=0.5;exitY=0;exitDx=0;exitDy=0;entryX=0.5;entryY=1;entryDx=0;entryDy=0;startArrow=none;startFill=0;endArrow=block;endFill=0;" parent="byVPkAh24s982Pa5DdWu-1" source="I40IXqIIhzKwg1b5VlEO-2" edge="1">
                    <mxGeometry relative="1" as="geometry">
                        <mxPoint x="600" y="440" as="targetPoint"/>
                    </mxGeometry>
                </mxCell>
                <mxCell id="I40IXqIIhzKwg1b5VlEO-2" value="Upload students" style="ellipse;whiteSpace=wrap;html=1;" parent="byVPkAh24s982Pa5DdWu-1" vertex="1">
                    <mxGeometry x="538.75" y="520" width="122.5" height="39.24" as="geometry"/>
                </mxCell>
                <mxCell id="I40IXqIIhzKwg1b5VlEO-3" value="" style="edgeStyle=orthogonalEdgeStyle;rounded=0;orthogonalLoop=1;jettySize=auto;html=1;endArrow=none;endFill=0;" parent="byVPkAh24s982Pa5DdWu-1" target="I40IXqIIhzKwg1b5VlEO-2" edge="1">
                    <mxGeometry relative="1" as="geometry">
                        <mxPoint x="600" y="489.24" as="sourcePoint"/>
                    </mxGeometry>
                </mxCell>
                <mxCell id="I40IXqIIhzKwg1b5VlEO-6" value="&amp;lt;&amp;lt;Generalization&amp;gt;&amp;gt;" style="text;html=1;strokeColor=none;align=center;verticalAlign=middle;whiteSpace=wrap;rounded=0;fillColor=#ffffff;" parent="byVPkAh24s982Pa5DdWu-1" vertex="1">
                    <mxGeometry x="580" y="470" width="40" height="20" as="geometry"/>
                </mxCell>
            </root>
        </mxGraphModel>
    </diagram>
    <diagram name="Diagram" id="lWMpjxIVTzcR6J6o4d3l">
        <mxGraphModel dx="972" dy="330" grid="1" gridSize="10" guides="1" tooltips="1" connect="1" arrows="1" fold="1" page="1" pageScale="1" pageWidth="827" pageHeight="1169" background="#ffffff" math="0" shadow="0">
            <root>
                <mxCell id="0"/>
                <mxCell id="1" parent="0"/>
                <mxCell id="cw91I34cRSK4Lhd0oCAd-2" value="Add entity feature" style="ellipse;whiteSpace=wrap;html=1;shadow=0;fontFamily=Helvetica;fontSize=20;fontColor=#FFFFFF;align=center;strokeWidth=3;fillColor=#F08705;strokeColor=none;gradientColor=none;" parent="1" vertex="1">
                    <mxGeometry x="760" y="601.5" width="120" height="120" as="geometry"/>
                </mxCell>
                <mxCell id="cw91I34cRSK4Lhd0oCAd-3" value="Remove entity" style="ellipse;whiteSpace=wrap;html=1;shadow=0;fontFamily=Helvetica;fontSize=20;fontColor=#FFFFFF;align=center;strokeWidth=3;fillColor=#E85642;strokeColor=none;" parent="1" vertex="1">
                    <mxGeometry x="1144.75" y="531.5" width="120" height="120" as="geometry"/>
                </mxCell>
                <mxCell id="cw91I34cRSK4Lhd0oCAd-4" value="Change entity" style="ellipse;whiteSpace=wrap;html=1;shadow=0;fontFamily=Helvetica;fontSize=20;fontColor=#FFFFFF;align=center;strokeWidth=3;fillColor=#1699D3;strokeColor=none;" parent="1" vertex="1">
                    <mxGeometry x="1280" y="681.5" width="120" height="120" as="geometry"/>
                </mxCell>
                <mxCell id="cw91I34cRSK4Lhd0oCAd-5" value="View Entity" style="ellipse;whiteSpace=wrap;html=1;shadow=0;fontFamily=Helvetica;fontSize=20;fontColor=#FFFFFF;align=center;strokeWidth=3;strokeColor=none;fillColor=#736CA8;" parent="1" vertex="1">
                    <mxGeometry x="1280" y="890" width="120" height="120" as="geometry"/>
                </mxCell>
                <mxCell id="cw91I34cRSK4Lhd0oCAd-6" value="Data Exchange" style="ellipse;whiteSpace=wrap;html=1;shadow=0;fontFamily=Helvetica;fontSize=20;fontColor=#FFFFFF;align=center;strokeWidth=3;fillColor=#F08705;strokeColor=none;" parent="1" vertex="1">
                    <mxGeometry x="1024.75" y="1030" width="120" height="120" as="geometry"/>
                </mxCell>
                <mxCell id="cw91I34cRSK4Lhd0oCAd-7" value="Backlog" style="ellipse;whiteSpace=wrap;html=1;shadow=0;fontFamily=Helvetica;fontSize=20;fontColor=#FFFFFF;align=center;strokeWidth=3;fillColor=#E85642;strokeColor=none;" parent="1" vertex="1">
                    <mxGeometry x="730" y="880" width="120" height="120" as="geometry"/>
                </mxCell>
                <mxCell id="cw91I34cRSK4Lhd0oCAd-11" style="endArrow=none;strokeWidth=6;strokeColor=#f08705;html=1;" parent="1" source="cw91I34cRSK4Lhd0oCAd-167" target="cw91I34cRSK4Lhd0oCAd-2" edge="1">
                    <mxGeometry relative="1" as="geometry"/>
                </mxCell>
                <mxCell id="cw91I34cRSK4Lhd0oCAd-12" style="endArrow=none;strokeWidth=6;strokeColor=#E85642;html=1;" parent="1" source="cw91I34cRSK4Lhd0oCAd-167" target="cw91I34cRSK4Lhd0oCAd-3" edge="1">
                    <mxGeometry relative="1" as="geometry"/>
                </mxCell>
                <mxCell id="cw91I34cRSK4Lhd0oCAd-13" style="endArrow=none;strokeWidth=6;strokeColor=#1699D3;html=1;" parent="1" source="cw91I34cRSK4Lhd0oCAd-167" target="cw91I34cRSK4Lhd0oCAd-4" edge="1">
                    <mxGeometry relative="1" as="geometry"/>
                </mxCell>
                <mxCell id="cw91I34cRSK4Lhd0oCAd-15" style="endArrow=none;strokeWidth=6;strokeColor=#736ca8;html=1;" parent="1" source="cw91I34cRSK4Lhd0oCAd-167" target="cw91I34cRSK4Lhd0oCAd-5" edge="1">
                    <mxGeometry relative="1" as="geometry"/>
                </mxCell>
                <mxCell id="cw91I34cRSK4Lhd0oCAd-16" value="" style="edgeStyle=none;endArrow=none;strokeWidth=6;strokeColor=#F08705;html=1;exitX=0.469;exitY=0.995;exitDx=0;exitDy=0;exitPerimeter=0;" parent="1" source="cw91I34cRSK4Lhd0oCAd-167" target="cw91I34cRSK4Lhd0oCAd-6" edge="1">
                    <mxGeometry x="181" y="226.5" width="100" height="100" as="geometry">
                        <mxPoint x="181" y="326.5" as="sourcePoint"/>
                        <mxPoint x="281" y="226.5" as="targetPoint"/>
                    </mxGeometry>
                </mxCell>
                <mxCell id="cw91I34cRSK4Lhd0oCAd-17" value="" style="edgeStyle=none;endArrow=none;strokeWidth=6;strokeColor=#E85642;html=1;" parent="1" source="cw91I34cRSK4Lhd0oCAd-167" target="cw91I34cRSK4Lhd0oCAd-7" edge="1">
                    <mxGeometry x="181" y="226.5" width="100" height="100" as="geometry">
                        <mxPoint x="181" y="326.5" as="sourcePoint"/>
                        <mxPoint x="281" y="226.5" as="targetPoint"/>
                    </mxGeometry>
                </mxCell>
                <mxCell id="cw91I34cRSK4Lhd0oCAd-44" value="Specify entity type" style="rounded=1;fillColor=#f5af58;strokeColor=none;strokeWidth=3;shadow=0;html=1;fontColor=#FFFFFF;" parent="1" vertex="1">
                    <mxGeometry x="560" y="639.75" width="120" height="43.5" as="geometry"/>
                </mxCell>
                <mxCell id="cw91I34cRSK4Lhd0oCAd-45" value="Enter entity information" style="rounded=1;fillColor=#f5af58;strokeColor=none;strokeWidth=3;shadow=0;html=1;fontColor=#FFFFFF;" parent="1" vertex="1">
                    <mxGeometry x="560" y="523.5" width="140" height="50" as="geometry"/>
                </mxCell>
                <mxCell id="cw91I34cRSK4Lhd0oCAd-46" value="Error if information is invalid" style="rounded=1;fillColor=#f5af58;strokeColor=none;strokeWidth=3;shadow=0;html=1;fontColor=#FFFFFF;" parent="1" vertex="1">
                    <mxGeometry x="735" y="481.5" width="170" height="50" as="geometry"/>
                </mxCell>
                <mxCell id="cw91I34cRSK4Lhd0oCAd-47" value="Assign ID to the new entity" style="rounded=1;fillColor=#f5af58;strokeColor=none;strokeWidth=3;shadow=0;html=1;fontColor=#FFFFFF;" parent="1" vertex="1">
                    <mxGeometry x="920" y="556.75" width="160" height="40" as="geometry"/>
                </mxCell>
                <mxCell id="cw91I34cRSK4Lhd0oCAd-56" value="" style="edgeStyle=none;endArrow=none;strokeWidth=3;strokeColor=#F5AF58;html=1;" parent="1" source="cw91I34cRSK4Lhd0oCAd-2" target="cw91I34cRSK4Lhd0oCAd-44" edge="1">
                    <mxGeometry x="-452.25" y="221.5" width="100" height="100" as="geometry">
                        <mxPoint x="-452.25" y="321.5" as="sourcePoint"/>
                        <mxPoint x="-352.25" y="221.5" as="targetPoint"/>
                    </mxGeometry>
                </mxCell>
                <mxCell id="cw91I34cRSK4Lhd0oCAd-57" value="" style="edgeStyle=none;endArrow=none;strokeWidth=3;strokeColor=#F5AF58;html=1;" parent="1" source="cw91I34cRSK4Lhd0oCAd-2" target="cw91I34cRSK4Lhd0oCAd-45" edge="1">
                    <mxGeometry x="-452.25" y="221.5" width="100" height="100" as="geometry">
                        <mxPoint x="-452.25" y="321.5" as="sourcePoint"/>
                        <mxPoint x="-352.25" y="221.5" as="targetPoint"/>
                    </mxGeometry>
                </mxCell>
                <mxCell id="cw91I34cRSK4Lhd0oCAd-58" value="" style="edgeStyle=none;endArrow=none;strokeWidth=3;strokeColor=#F5AF58;html=1;" parent="1" source="cw91I34cRSK4Lhd0oCAd-2" target="cw91I34cRSK4Lhd0oCAd-46" edge="1">
                    <mxGeometry x="-452.25" y="221.5" width="100" height="100" as="geometry">
                        <mxPoint x="-452.25" y="321.5" as="sourcePoint"/>
                        <mxPoint x="-352.25" y="221.5" as="targetPoint"/>
                    </mxGeometry>
                </mxCell>
                <mxCell id="cw91I34cRSK4Lhd0oCAd-59" value="" style="edgeStyle=none;endArrow=none;strokeWidth=3;strokeColor=#F5AF58;html=1;" parent="1" source="cw91I34cRSK4Lhd0oCAd-2" target="cw91I34cRSK4Lhd0oCAd-47" edge="1">
                    <mxGeometry x="-452.25" y="221.5" width="100" height="100" as="geometry">
                        <mxPoint x="-452.25" y="321.5" as="sourcePoint"/>
                        <mxPoint x="-352.25" y="221.5" as="targetPoint"/>
                    </mxGeometry>
                </mxCell>
                <mxCell id="cw91I34cRSK4Lhd0oCAd-69" value="Remove entity" style="rounded=1;fillColor=#f08e81;strokeColor=none;strokeWidth=3;shadow=0;html=1;fontColor=#FFFFFF;fontSize=14;" parent="1" vertex="1">
                    <mxGeometry x="1050" y="440" width="120" height="40" as="geometry"/>
                </mxCell>
                <mxCell id="cw91I34cRSK4Lhd0oCAd-80" value="" style="edgeStyle=none;endArrow=none;strokeWidth=3;strokeColor=#F08E81;html=1;" parent="1" source="cw91I34cRSK4Lhd0oCAd-3" target="cw91I34cRSK4Lhd0oCAd-69" edge="1">
                    <mxGeometry x="-227.75" y="116.5" width="100" height="100" as="geometry">
                        <mxPoint x="-227.75" y="216.5" as="sourcePoint"/>
                        <mxPoint x="-127.75" y="116.5" as="targetPoint"/>
                    </mxGeometry>
                </mxCell>
                <mxCell id="cw91I34cRSK4Lhd0oCAd-81" value="" style="edgeStyle=none;endArrow=none;strokeWidth=3;strokeColor=#F08E81;html=1;entryX=0;entryY=0.5;entryDx=0;entryDy=0;" parent="1" source="cw91I34cRSK4Lhd0oCAd-3" target="cw91I34cRSK4Lhd0oCAd-271" edge="1">
                    <mxGeometry x="-227.75" y="116.5" width="100" height="100" as="geometry">
                        <mxPoint x="-227.75" y="216.5" as="sourcePoint"/>
                        <mxPoint x="1369.3516713091922" y="523.5" as="targetPoint"/>
                    </mxGeometry>
                </mxCell>
                <mxCell id="cw91I34cRSK4Lhd0oCAd-87" value="Take parameters" style="rounded=1;fillColor=#64BBE2;strokeColor=none;strokeWidth=3;shadow=0;html=1;fontColor=#FFFFFF;fontSize=14;" parent="1" vertex="1">
                    <mxGeometry x="1571" y="641.5" width="160" height="40" as="geometry"/>
                </mxCell>
                <mxCell id="cw91I34cRSK4Lhd0oCAd-88" value="Update information" style="rounded=1;fillColor=#64BBE2;strokeColor=none;strokeWidth=3;shadow=0;html=1;fontColor=#FFFFFF;fontSize=14;" parent="1" vertex="1">
                    <mxGeometry x="1420.5" y="591.5" width="139.5" height="40" as="geometry"/>
                </mxCell>
                <mxCell id="cw91I34cRSK4Lhd0oCAd-90" value="Error" style="rounded=1;fillColor=#64BBE2;strokeColor=none;strokeWidth=3;shadow=0;html=1;fontColor=#FFFFFF;fontSize=14;" parent="1" vertex="1">
                    <mxGeometry x="1460" y="791.5" width="89" height="40" as="geometry"/>
                </mxCell>
                <mxCell id="cw91I34cRSK4Lhd0oCAd-98" value="" style="edgeStyle=none;endArrow=none;strokeWidth=3;strokeColor=#64BBE2;html=1;entryX=0;entryY=0.5;entryDx=0;entryDy=0;" parent="1" source="cw91I34cRSK4Lhd0oCAd-4" target="cw91I34cRSK4Lhd0oCAd-87" edge="1">
                    <mxGeometry x="-84" y="148" width="100" height="100" as="geometry">
                        <mxPoint x="-84" y="248" as="sourcePoint"/>
                        <mxPoint x="16" y="148" as="targetPoint"/>
                    </mxGeometry>
                </mxCell>
                <mxCell id="cw91I34cRSK4Lhd0oCAd-99" value="" style="edgeStyle=none;endArrow=none;strokeWidth=3;strokeColor=#64BBE2;html=1;entryX=0;entryY=1;entryDx=0;entryDy=0;" parent="1" source="cw91I34cRSK4Lhd0oCAd-4" target="cw91I34cRSK4Lhd0oCAd-88" edge="1">
                    <mxGeometry x="-84" y="148" width="100" height="100" as="geometry">
                        <mxPoint x="-84" y="248" as="sourcePoint"/>
                        <mxPoint x="16" y="148" as="targetPoint"/>
                    </mxGeometry>
                </mxCell>
                <mxCell id="cw91I34cRSK4Lhd0oCAd-101" value="" style="edgeStyle=none;endArrow=none;strokeWidth=3;strokeColor=#64BBE2;html=1;" parent="1" source="cw91I34cRSK4Lhd0oCAd-4" target="cw91I34cRSK4Lhd0oCAd-90" edge="1">
                    <mxGeometry x="-84" y="148" width="100" height="100" as="geometry">
                        <mxPoint x="-84" y="248" as="sourcePoint"/>
                        <mxPoint x="16" y="148" as="targetPoint"/>
                    </mxGeometry>
                </mxCell>
                <mxCell id="cw91I34cRSK4Lhd0oCAd-118" value="" style="edgeStyle=none;endArrow=none;strokeWidth=3;strokeColor=#A29DC5;html=1;entryX=0;entryY=0.5;entryDx=0;entryDy=0;fontSize=14;" parent="1" source="cw91I34cRSK4Lhd0oCAd-5" target="cw91I34cRSK4Lhd0oCAd-252" edge="1">
                    <mxGeometry x="181" y="-168.5" width="100" height="100" as="geometry">
                        <mxPoint x="181" y="-68.5" as="sourcePoint"/>
                        <mxPoint x="1670" y="1030" as="targetPoint"/>
                    </mxGeometry>
                </mxCell>
                <mxCell id="cw91I34cRSK4Lhd0oCAd-119" value="" style="rounded=1;fillColor=#f5af58;strokeColor=none;strokeWidth=3;shadow=0;html=1;fontColor=#FFFFFF;" parent="1" vertex="1">
                    <mxGeometry x="1111" y="1180" width="120" height="40" as="geometry"/>
                </mxCell>
                <mxCell id="cw91I34cRSK4Lhd0oCAd-127" value="" style="rounded=1;fillColor=#f5af58;strokeColor=none;strokeWidth=3;shadow=0;html=1;fontColor=#FFFFFF;" parent="1" vertex="1">
                    <mxGeometry x="920" y="1180" width="120" height="40" as="geometry"/>
                </mxCell>
                <mxCell id="cw91I34cRSK4Lhd0oCAd-128" value="" style="rounded=1;fillColor=#f5af58;strokeColor=none;strokeWidth=3;shadow=0;html=1;fontColor=#FFFFFF;" parent="1" vertex="1">
                    <mxGeometry x="827" y="1110" width="120" height="40" as="geometry"/>
                </mxCell>
                <mxCell id="cw91I34cRSK4Lhd0oCAd-129" value="Upload Students" style="rounded=1;fillColor=#f5af58;strokeColor=none;strokeWidth=3;shadow=0;html=1;fontColor=#FFFFFF;" parent="1" vertex="1">
                    <mxGeometry x="1200" y="1100" width="120" height="40" as="geometry"/>
                </mxCell>
                <mxCell id="cw91I34cRSK4Lhd0oCAd-130" value="" style="edgeStyle=none;endArrow=none;strokeWidth=3;strokeColor=#F5AF58;html=1;" parent="1" source="cw91I34cRSK4Lhd0oCAd-6" target="cw91I34cRSK4Lhd0oCAd-129" edge="1">
                    <mxGeometry x="111" y="-123.5" width="100" height="100" as="geometry">
                        <mxPoint x="111" y="-23.5" as="sourcePoint"/>
                        <mxPoint x="211" y="-123.5" as="targetPoint"/>
                    </mxGeometry>
                </mxCell>
                <mxCell id="cw91I34cRSK4Lhd0oCAd-131" value="" style="edgeStyle=none;endArrow=none;strokeWidth=3;strokeColor=#F5AF58;html=1;" parent="1" source="cw91I34cRSK4Lhd0oCAd-6" target="cw91I34cRSK4Lhd0oCAd-119" edge="1">
                    <mxGeometry x="111" y="-123.5" width="100" height="100" as="geometry">
                        <mxPoint x="111" y="-23.5" as="sourcePoint"/>
                        <mxPoint x="211" y="-123.5" as="targetPoint"/>
                    </mxGeometry>
                </mxCell>
                <mxCell id="cw91I34cRSK4Lhd0oCAd-139" value="" style="edgeStyle=none;endArrow=none;strokeWidth=3;strokeColor=#F5AF58;html=1;" parent="1" source="cw91I34cRSK4Lhd0oCAd-6" target="cw91I34cRSK4Lhd0oCAd-127" edge="1">
                    <mxGeometry x="111" y="-123.5" width="100" height="100" as="geometry">
                        <mxPoint x="111" y="-23.5" as="sourcePoint"/>
                        <mxPoint x="211" y="-123.5" as="targetPoint"/>
                    </mxGeometry>
                </mxCell>
                <mxCell id="cw91I34cRSK4Lhd0oCAd-140" value="" style="edgeStyle=none;endArrow=none;strokeWidth=3;strokeColor=#F5AF58;html=1;" parent="1" source="cw91I34cRSK4Lhd0oCAd-6" target="cw91I34cRSK4Lhd0oCAd-128" edge="1">
                    <mxGeometry x="111" y="-123.5" width="100" height="100" as="geometry">
                        <mxPoint x="111" y="-23.5" as="sourcePoint"/>
                        <mxPoint x="211" y="-123.5" as="targetPoint"/>
                    </mxGeometry>
                </mxCell>
                <mxCell id="cw91I34cRSK4Lhd0oCAd-141" value="DataEx-&amp;gt;Export attendance" style="rounded=1;fillColor=#f08e81;strokeColor=none;strokeWidth=3;shadow=0;html=1;fontColor=#FFFFFF;" parent="1" vertex="1">
                    <mxGeometry x="670" y="780" width="202.75" height="40" as="geometry"/>
                </mxCell>
                <mxCell id="cw91I34cRSK4Lhd0oCAd-143" value="Export Results" style="rounded=1;fillColor=#f08e81;strokeColor=none;strokeWidth=3;shadow=0;html=1;fontColor=#FFFFFF;" parent="1" vertex="1">
                    <mxGeometry x="530" y="850" width="120" height="40" as="geometry"/>
                </mxCell>
                <mxCell id="cw91I34cRSK4Lhd0oCAd-144" value="" style="rounded=1;fillColor=#f08e81;strokeColor=none;strokeWidth=3;shadow=0;html=1;fontColor=#FFFFFF;" parent="1" vertex="1">
                    <mxGeometry x="530" y="970" width="120" height="40" as="geometry"/>
                </mxCell>
                <mxCell id="cw91I34cRSK4Lhd0oCAd-145" value="" style="rounded=1;fillColor=#f08e81;strokeColor=none;strokeWidth=3;shadow=0;html=1;fontColor=#FFFFFF;" parent="1" vertex="1">
                    <mxGeometry x="620" y="1040" width="120" height="40" as="geometry"/>
                </mxCell>
                <mxCell id="cw91I34cRSK4Lhd0oCAd-155" value="" style="edgeStyle=none;endArrow=none;strokeWidth=3;strokeColor=#F08E81;html=1;" parent="1" source="cw91I34cRSK4Lhd0oCAd-7" target="cw91I34cRSK4Lhd0oCAd-141" edge="1">
                    <mxGeometry x="30" y="-88.5" width="100" height="100" as="geometry">
                        <mxPoint x="30" y="11.5" as="sourcePoint"/>
                        <mxPoint x="130" y="-88.5" as="targetPoint"/>
                    </mxGeometry>
                </mxCell>
                <mxCell id="cw91I34cRSK4Lhd0oCAd-156" value="" style="edgeStyle=none;endArrow=none;strokeWidth=3;strokeColor=#F08E81;html=1;" parent="1" source="cw91I34cRSK4Lhd0oCAd-7" target="cw91I34cRSK4Lhd0oCAd-143" edge="1">
                    <mxGeometry x="30" y="-88.5" width="100" height="100" as="geometry">
                        <mxPoint x="30" y="11.5" as="sourcePoint"/>
                        <mxPoint x="130" y="-88.5" as="targetPoint"/>
                    </mxGeometry>
                </mxCell>
                <mxCell id="cw91I34cRSK4Lhd0oCAd-157" value="" style="edgeStyle=none;endArrow=none;strokeWidth=3;strokeColor=#F08E81;html=1;" parent="1" source="cw91I34cRSK4Lhd0oCAd-7" target="cw91I34cRSK4Lhd0oCAd-144" edge="1">
                    <mxGeometry x="30" y="-88.5" width="100" height="100" as="geometry">
                        <mxPoint x="30" y="11.5" as="sourcePoint"/>
                        <mxPoint x="130" y="-88.5" as="targetPoint"/>
                    </mxGeometry>
                </mxCell>
                <mxCell id="cw91I34cRSK4Lhd0oCAd-158" value="" style="edgeStyle=none;endArrow=none;strokeWidth=3;strokeColor=#F08E81;html=1;" parent="1" source="cw91I34cRSK4Lhd0oCAd-7" target="cw91I34cRSK4Lhd0oCAd-145" edge="1">
                    <mxGeometry x="30" y="-88.5" width="100" height="100" as="geometry">
                        <mxPoint x="30" y="11.5" as="sourcePoint"/>
                        <mxPoint x="130" y="-88.5" as="targetPoint"/>
                    </mxGeometry>
                </mxCell>
                <mxCell id="cw91I34cRSK4Lhd0oCAd-167" value="Admin epic" style="ellipse;whiteSpace=wrap;html=1;shadow=0;fontFamily=Helvetica;fontSize=30;fontColor=#2F5B7C;align=center;strokeColor=#2F5B7C;strokeWidth=6;fillColor=#FFFFFF;fontStyle=1;gradientColor=none;" parent="1" vertex="1">
                    <mxGeometry x="978" y="706.5" width="213.5" height="213.5" as="geometry"/>
                </mxCell>
                <mxCell id="cw91I34cRSK4Lhd0oCAd-193" value="" style="edgeStyle=none;endArrow=none;strokeWidth=3;strokeColor=#A29DC5;html=1;entryX=0;entryY=0.5;entryDx=0;entryDy=0;fontSize=14;" parent="1" source="cw91I34cRSK4Lhd0oCAd-5" target="cw91I34cRSK4Lhd0oCAd-251" edge="1">
                    <mxGeometry x="-1244" y="-473.5" width="100" height="100" as="geometry">
                        <mxPoint x="-1244" y="-373.5" as="sourcePoint"/>
                        <mxPoint x="1570" y="1210" as="targetPoint"/>
                    </mxGeometry>
                </mxCell>
                <mxCell id="cw91I34cRSK4Lhd0oCAd-196" value="" style="edgeStyle=none;endArrow=none;strokeWidth=3;strokeColor=#64BBE2;html=1;entryX=1;entryY=0;entryDx=0;entryDy=0;exitX=0;exitY=0.5;exitDx=0;exitDy=0;fontSize=14;" parent="1" source="cw91I34cRSK4Lhd0oCAd-197" target="cw91I34cRSK4Lhd0oCAd-90" edge="1">
                    <mxGeometry x="-74" y="158" width="100" height="100" as="geometry">
                        <mxPoint x="2220" y="601.5" as="sourcePoint"/>
                        <mxPoint x="2058.3999999999996" y="748" as="targetPoint"/>
                    </mxGeometry>
                </mxCell>
                <mxCell id="cw91I34cRSK4Lhd0oCAd-197" value="If entity was not found" style="rounded=1;fillColor=#64BBE2;strokeColor=none;strokeWidth=3;shadow=0;html=1;fontColor=#FFFFFF;fontSize=14;" parent="1" vertex="1">
                    <mxGeometry x="1620" y="751.5" width="160" height="40" as="geometry"/>
                </mxCell>
                <mxCell id="cw91I34cRSK4Lhd0oCAd-240" value="" style="edgeStyle=none;endArrow=none;strokeWidth=3;strokeColor=#64BBE2;html=1;entryX=1;entryY=1;entryDx=0;entryDy=0;exitX=0;exitY=0.5;exitDx=0;exitDy=0;fontSize=14;" parent="1" source="cw91I34cRSK4Lhd0oCAd-241" target="cw91I34cRSK4Lhd0oCAd-90" edge="1">
                    <mxGeometry x="-43" y="336.5" width="100" height="100" as="geometry">
                        <mxPoint x="2251" y="780" as="sourcePoint"/>
                        <mxPoint x="1730" y="801.4999999999998" as="targetPoint"/>
                    </mxGeometry>
                </mxCell>
                <mxCell id="cw91I34cRSK4Lhd0oCAd-241" value="If data is invalid" style="rounded=1;fillColor=#64BBE2;strokeColor=none;strokeWidth=3;shadow=0;html=1;fontColor=#FFFFFF;fontSize=14;" parent="1" vertex="1">
                    <mxGeometry x="1620" y="831.5" width="160" height="40" as="geometry"/>
                </mxCell>
                <mxCell id="cw91I34cRSK4Lhd0oCAd-243" value="" style="edgeStyle=none;endArrow=none;strokeWidth=3;strokeColor=#64BBE2;html=1;entryX=1;entryY=0;entryDx=0;entryDy=0;exitX=0;exitY=0.5;exitDx=0;exitDy=0;fontSize=14;" parent="1" source="cw91I34cRSK4Lhd0oCAd-244" target="cw91I34cRSK4Lhd0oCAd-87" edge="1">
                    <mxGeometry x="7" y="8" width="100" height="100" as="geometry">
                        <mxPoint x="1821" y="531.5" as="sourcePoint"/>
                        <mxPoint x="1750" y="601.5000000000002" as="targetPoint"/>
                    </mxGeometry>
                </mxCell>
                <mxCell id="cw91I34cRSK4Lhd0oCAd-244" value="Entity ID&amp;nbsp;" style="rounded=1;fillColor=#64BBE2;strokeColor=none;strokeWidth=3;shadow=0;html=1;fontColor=#FFFFFF;fontSize=14;" parent="1" vertex="1">
                    <mxGeometry x="1800" y="551.5" width="160" height="40" as="geometry"/>
                </mxCell>
                <mxCell id="cw91I34cRSK4Lhd0oCAd-245" value="" style="edgeStyle=none;endArrow=none;strokeWidth=3;strokeColor=#64BBE2;html=1;entryX=1;entryY=1;entryDx=0;entryDy=0;exitX=0;exitY=0.5;exitDx=0;exitDy=0;fontSize=14;" parent="1" source="cw91I34cRSK4Lhd0oCAd-246" target="cw91I34cRSK4Lhd0oCAd-87" edge="1">
                    <mxGeometry x="38" y="186.5" width="100" height="100" as="geometry">
                        <mxPoint x="2332" y="630" as="sourcePoint"/>
                        <mxPoint x="1750" y="641.4999999999995" as="targetPoint"/>
                    </mxGeometry>
                </mxCell>
                <mxCell id="cw91I34cRSK4Lhd0oCAd-246" value="New data" style="rounded=1;fillColor=#64BBE2;strokeColor=none;strokeWidth=3;shadow=0;html=1;fontColor=#FFFFFF;fontSize=14;" parent="1" vertex="1">
                    <mxGeometry x="1800" y="721.5" width="160" height="40" as="geometry"/>
                </mxCell>
                <mxCell id="cw91I34cRSK4Lhd0oCAd-248" value="" style="edgeStyle=none;endArrow=none;strokeWidth=3;strokeColor=#64BBE2;html=1;entryX=1;entryY=0.5;entryDx=0;entryDy=0;exitX=0;exitY=0.5;exitDx=0;exitDy=0;fontSize=14;" parent="1" source="cw91I34cRSK4Lhd0oCAd-249" target="cw91I34cRSK4Lhd0oCAd-87" edge="1">
                    <mxGeometry x="96" y="108" width="100" height="100" as="geometry">
                        <mxPoint x="2390" y="551.5" as="sourcePoint"/>
                        <mxPoint x="1750" y="631.4999999999998" as="targetPoint"/>
                    </mxGeometry>
                </mxCell>
                <mxCell id="cw91I34cRSK4Lhd0oCAd-249" value="Entity Table" style="rounded=1;fillColor=#64BBE2;strokeColor=none;strokeWidth=3;shadow=0;html=1;fontColor=#FFFFFF;fontSize=14;" parent="1" vertex="1">
                    <mxGeometry x="1800" y="638.25" width="160" height="40" as="geometry"/>
                </mxCell>
                <mxCell id="cw91I34cRSK4Lhd0oCAd-251" value="Take parameters" style="strokeWidth=3;html=1;strokeColor=none;fontSize=14;rounded=1;shadow=0;fillColor=#736CA8;fontColor=#FFFFFF;" parent="1" vertex="1">
                    <mxGeometry x="1499" y="990" width="160" height="40" as="geometry"/>
                </mxCell>
                <mxCell id="cw91I34cRSK4Lhd0oCAd-252" value="&lt;font color=&quot;#ffffff&quot; style=&quot;font-size: 14px;&quot;&gt;Show entity information&lt;/font&gt;" style="strokeWidth=3;html=1;fontSize=14;rounded=1;shadow=0;strokeColor=none;fillColor=#736CA8;" parent="1" vertex="1">
                    <mxGeometry x="1480" y="910" width="160" height="40" as="geometry"/>
                </mxCell>
                <mxCell id="cw91I34cRSK4Lhd0oCAd-258" value="" style="edgeStyle=none;endArrow=none;strokeWidth=3;html=1;entryX=1;entryY=0;entryDx=0;entryDy=0;exitX=0;exitY=0.5;exitDx=0;exitDy=0;strokeColor=#A29DC5;fontSize=14;fontColor=#FFFFFF;" parent="1" source="cw91I34cRSK4Lhd0oCAd-259" target="cw91I34cRSK4Lhd0oCAd-251" edge="1">
                    <mxGeometry x="306.5" y="476.5" width="100" height="100" as="geometry">
                        <mxPoint x="2600.5" y="920" as="sourcePoint"/>
                        <mxPoint x="2049.5" y="1070.0000000000002" as="targetPoint"/>
                    </mxGeometry>
                </mxCell>
                <mxCell id="cw91I34cRSK4Lhd0oCAd-259" value="Entity ID&amp;nbsp;" style="strokeWidth=3;html=1;strokeColor=none;fontSize=14;rounded=1;shadow=0;fillColor=#736CA8;fontColor=#FFFFFF;" parent="1" vertex="1">
                    <mxGeometry x="1710" y="920" width="160" height="40" as="geometry"/>
                </mxCell>
                <mxCell id="cw91I34cRSK4Lhd0oCAd-262" value="" style="edgeStyle=none;endArrow=none;strokeWidth=3;html=1;entryX=1;entryY=1;entryDx=0;entryDy=0;exitX=0;exitY=0.5;exitDx=0;exitDy=0;strokeColor=#A29DC5;fontSize=14;fontColor=#FFFFFF;" parent="1" source="cw91I34cRSK4Lhd0oCAd-263" target="cw91I34cRSK4Lhd0oCAd-251" edge="1">
                    <mxGeometry x="395.5" y="576.5" width="100" height="100" as="geometry">
                        <mxPoint x="2689.5" y="1020" as="sourcePoint"/>
                        <mxPoint x="2049.5" y="1099.9999999999998" as="targetPoint"/>
                    </mxGeometry>
                </mxCell>
                <mxCell id="cw91I34cRSK4Lhd0oCAd-263" value="Entity Table" style="strokeWidth=3;html=1;strokeColor=none;fontSize=14;rounded=1;shadow=0;fillColor=#736CA8;fontColor=#FFFFFF;" parent="1" vertex="1">
                    <mxGeometry x="1710" y="1060" width="160" height="40" as="geometry"/>
                </mxCell>
                <mxCell id="cw91I34cRSK4Lhd0oCAd-266" value="" style="edgeStyle=none;endArrow=none;strokeWidth=3;strokeColor=#A29DC5;html=1;entryX=0.25;entryY=0;entryDx=0;entryDy=0;exitX=1;exitY=1;exitDx=0;exitDy=0;fontSize=14;" parent="1" source="cw91I34cRSK4Lhd0oCAd-5" target="cw91I34cRSK4Lhd0oCAd-285" edge="1">
                    <mxGeometry x="-1234" y="-463.5" width="100" height="100" as="geometry">
                        <mxPoint x="1498.1758125307642" y="1031.18246697205" as="sourcePoint"/>
                        <mxPoint x="1470" y="1079.9999999999998" as="targetPoint"/>
                    </mxGeometry>
                </mxCell>
                <mxCell id="cw91I34cRSK4Lhd0oCAd-271" value="Take parameters" style="rounded=1;fillColor=#f08e81;strokeColor=none;strokeWidth=3;shadow=0;html=1;fontColor=#FFFFFF;" parent="1" vertex="1">
                    <mxGeometry x="1300" y="520" width="160" height="40" as="geometry"/>
                </mxCell>
                <mxCell id="cw91I34cRSK4Lhd0oCAd-272" value="" style="edgeStyle=none;endArrow=none;strokeWidth=3;strokeColor=#F08E81;html=1;entryX=1;entryY=0;entryDx=0;entryDy=0;exitX=0;exitY=0.5;exitDx=0;exitDy=0;fontSize=14;" parent="1" source="cw91I34cRSK4Lhd0oCAd-273" target="cw91I34cRSK4Lhd0oCAd-271" edge="1">
                    <mxGeometry x="-264" y="-113.5" width="100" height="100" as="geometry">
                        <mxPoint x="1550" y="410" as="sourcePoint"/>
                        <mxPoint x="1479" y="480.0000000000002" as="targetPoint"/>
                    </mxGeometry>
                </mxCell>
                <mxCell id="cw91I34cRSK4Lhd0oCAd-273" value="Entity ID&amp;nbsp;" style="rounded=1;fillColor=#f08e81;strokeColor=none;strokeWidth=3;shadow=0;html=1;fontColor=#FFFFFF;fontSize=14;" parent="1" vertex="1">
                    <mxGeometry x="1520" y="441.5" width="160" height="40" as="geometry"/>
                </mxCell>
                <mxCell id="cw91I34cRSK4Lhd0oCAd-274" value="" style="edgeStyle=none;endArrow=none;strokeWidth=3;strokeColor=#F08E81;html=1;entryX=1;entryY=0.5;entryDx=0;entryDy=0;exitX=0;exitY=0.5;exitDx=0;exitDy=0;fontSize=14;" parent="1" source="cw91I34cRSK4Lhd0oCAd-275" target="cw91I34cRSK4Lhd0oCAd-271" edge="1">
                    <mxGeometry x="-175" y="-13.5" width="100" height="100" as="geometry">
                        <mxPoint x="2119" y="430" as="sourcePoint"/>
                        <mxPoint x="1479" y="509.9999999999998" as="targetPoint"/>
                    </mxGeometry>
                </mxCell>
                <mxCell id="cw91I34cRSK4Lhd0oCAd-275" value="Entity Table" style="rounded=1;fillColor=#f08e81;strokeColor=none;strokeWidth=3;shadow=0;html=1;fontColor=#FFFFFF;fontSize=14;" parent="1" vertex="1">
                    <mxGeometry x="1520" y="520" width="160" height="40" as="geometry"/>
                </mxCell>
                <mxCell id="cw91I34cRSK4Lhd0oCAd-278" value="Error if entity not found" style="rounded=1;fillColor=#f08e81;strokeColor=none;strokeWidth=3;shadow=0;html=1;fontColor=#FFFFFF;fontSize=14;" parent="1" vertex="1">
                    <mxGeometry x="1220" y="440" width="160" height="40" as="geometry"/>
                </mxCell>
                <mxCell id="cw91I34cRSK4Lhd0oCAd-280" value="" style="edgeStyle=none;endArrow=none;strokeWidth=3;strokeColor=#F08E81;html=1;entryX=0.25;entryY=1;entryDx=0;entryDy=0;exitX=0.68;exitY=0.031;exitDx=0;exitDy=0;exitPerimeter=0;" parent="1" source="cw91I34cRSK4Lhd0oCAd-3" target="cw91I34cRSK4Lhd0oCAd-278" edge="1">
                    <mxGeometry x="-217.75" y="126.5" width="100" height="100" as="geometry">
                        <mxPoint x="1267.42373437486" y="572.7688721591671" as="sourcePoint"/>
                        <mxPoint x="1310" y="550" as="targetPoint"/>
                    </mxGeometry>
                </mxCell>
                <mxCell id="cw91I34cRSK4Lhd0oCAd-282" value="Data being retrieved" style="strokeWidth=3;html=1;strokeColor=none;fontSize=14;rounded=1;shadow=0;fillColor=#736CA8;fontColor=#FFFFFF;" parent="1" vertex="1">
                    <mxGeometry x="1720" y="990" width="160" height="40" as="geometry"/>
                </mxCell>
                <mxCell id="cw91I34cRSK4Lhd0oCAd-284" value="" style="edgeStyle=none;endArrow=none;strokeWidth=3;html=1;entryX=1;entryY=0.5;entryDx=0;entryDy=0;exitX=0;exitY=0.5;exitDx=0;exitDy=0;strokeColor=#A29DC5;fontSize=14;fontColor=#FFFFFF;" parent="1" source="cw91I34cRSK4Lhd0oCAd-282" target="cw91I34cRSK4Lhd0oCAd-251" edge="1">
                    <mxGeometry x="405.5" y="586.5" width="100" height="100" as="geometry">
                        <mxPoint x="1730" y="1099.9999999999998" as="sourcePoint"/>
                        <mxPoint x="1669" y="1039.9999999999998" as="targetPoint"/>
                    </mxGeometry>
                </mxCell>
                <mxCell id="cw91I34cRSK4Lhd0oCAd-285" value="Error" style="rounded=1;fillColor=#736CA8;strokeColor=none;strokeWidth=3;shadow=0;html=1;fontColor=#FFFFFF;fontSize=14;" parent="1" vertex="1">
                    <mxGeometry x="1380" y="1060" width="89" height="40" as="geometry"/>
                </mxCell>
                <mxCell id="cw91I34cRSK4Lhd0oCAd-286" value="If entity was not found" style="rounded=1;fillColor=#736CA8;strokeColor=none;strokeWidth=3;shadow=0;html=1;fontColor=#FFFFFF;fontSize=14;" parent="1" vertex="1">
                    <mxGeometry x="1510" y="1060" width="160" height="40" as="geometry"/>
                </mxCell>
                <mxCell id="cw91I34cRSK4Lhd0oCAd-287" value="If data is invalid" style="rounded=1;fillColor=#736CA8;strokeColor=none;strokeWidth=3;shadow=0;html=1;fontColor=#FFFFFF;fontSize=14;" parent="1" vertex="1">
                    <mxGeometry x="1510" y="1130" width="160" height="40" as="geometry"/>
                </mxCell>
                <mxCell id="cw91I34cRSK4Lhd0oCAd-290" value="" style="edgeStyle=none;endArrow=none;strokeWidth=3;strokeColor=#A29DC5;html=1;entryX=0;entryY=1;entryDx=0;entryDy=0;exitX=1;exitY=1;exitDx=0;exitDy=0;fontSize=14;" parent="1" source="cw91I34cRSK4Lhd0oCAd-285" target="cw91I34cRSK4Lhd0oCAd-287" edge="1">
                    <mxGeometry x="-1234" y="-463.5" width="100" height="100" as="geometry">
                        <mxPoint x="1406.1283256200063" y="981.2040341231136" as="sourcePoint"/>
                        <mxPoint x="1509" y="1019.9999999999998" as="targetPoint"/>
                    </mxGeometry>
                </mxCell>
                <mxCell id="cw91I34cRSK4Lhd0oCAd-291" value="" style="edgeStyle=none;endArrow=none;strokeWidth=3;strokeColor=#A29DC5;html=1;entryX=0;entryY=0.25;entryDx=0;entryDy=0;exitX=1;exitY=0.25;exitDx=0;exitDy=0;fontSize=14;" parent="1" source="cw91I34cRSK4Lhd0oCAd-285" target="cw91I34cRSK4Lhd0oCAd-286" edge="1">
                    <mxGeometry x="-1224" y="-453.5" width="100" height="100" as="geometry">
                        <mxPoint x="1416.1283256200063" y="991.2040341231136" as="sourcePoint"/>
                        <mxPoint x="1519" y="1029.9999999999998" as="targetPoint"/>
                    </mxGeometry>
                </mxCell>
            </root>
        </mxGraphModel>
    </diagram>
    <diagram id="sC2mcCHhz0bCrSRWokOk" name="Class">
        <mxGraphModel dx="477" dy="533" grid="1" gridSize="10" guides="1" tooltips="1" connect="1" arrows="1" fold="1" page="1" pageScale="1" pageWidth="827" pageHeight="1169" math="0" shadow="0">
            <root>
                <mxCell id="fChqnIq0Zc2DFT1DxzHm-0"/>
                <mxCell id="fChqnIq0Zc2DFT1DxzHm-1" parent="fChqnIq0Zc2DFT1DxzHm-0"/>
                <mxCell id="fChqnIq0Zc2DFT1DxzHm-2" value="User" style="swimlane;fontStyle=2;align=center;verticalAlign=top;childLayout=stackLayout;horizontal=1;startSize=26;horizontalStack=0;resizeParent=1;resizeLast=0;collapsible=1;marginBottom=0;rounded=0;shadow=0;strokeWidth=1;" parent="fChqnIq0Zc2DFT1DxzHm-1" vertex="1">
                    <mxGeometry x="80" y="30" width="290" height="150" as="geometry">
                        <mxRectangle x="230" y="140" width="160" height="26" as="alternateBounds"/>
                    </mxGeometry>
                </mxCell>
                <mxCell id="fChqnIq0Zc2DFT1DxzHm-6" value="" style="line;html=1;strokeWidth=1;align=left;verticalAlign=middle;spacingTop=-1;spacingLeft=3;spacingRight=3;rotatable=0;labelPosition=right;points=[];portConstraint=eastwest;" parent="fChqnIq0Zc2DFT1DxzHm-2" vertex="1">
                    <mxGeometry y="26" width="290" height="8" as="geometry"/>
                </mxCell>
                <mxCell id="fChqnIq0Zc2DFT1DxzHm-7" value="addEntity(entity : entity) : entity " style="text;align=left;verticalAlign=top;spacingLeft=4;spacingRight=4;overflow=hidden;rotatable=0;points=[[0,0.5],[1,0.5]];portConstraint=eastwest;" parent="fChqnIq0Zc2DFT1DxzHm-2" vertex="1">
                    <mxGeometry y="34" width="290" height="26" as="geometry"/>
                </mxCell>
                <mxCell id="spbeYewRy1oI7hu4qLnQ-0" value="removeEntity(id : int) : entity " style="text;align=left;verticalAlign=top;spacingLeft=4;spacingRight=4;overflow=hidden;rotatable=0;points=[[0,0.5],[1,0.5]];portConstraint=eastwest;" parent="fChqnIq0Zc2DFT1DxzHm-2" vertex="1">
                    <mxGeometry y="60" width="290" height="26" as="geometry"/>
                </mxCell>
                <mxCell id="spbeYewRy1oI7hu4qLnQ-1" value="viewEntity(id : int, attributes : string) : entity " style="text;align=left;verticalAlign=top;spacingLeft=4;spacingRight=4;overflow=hidden;rotatable=0;points=[[0,0.5],[1,0.5]];portConstraint=eastwest;" parent="fChqnIq0Zc2DFT1DxzHm-2" vertex="1">
                    <mxGeometry y="86" width="290" height="26" as="geometry"/>
                </mxCell>
                <mxCell id="ELnVHz5mMSc9jeroOFgU-0" value="changeEntity(entity : entity , newData[] ) : entity " style="text;align=left;verticalAlign=top;spacingLeft=4;spacingRight=4;overflow=hidden;rotatable=0;points=[[0,0.5],[1,0.5]];portConstraint=eastwest;" parent="fChqnIq0Zc2DFT1DxzHm-2" vertex="1">
                    <mxGeometry y="112" width="290" height="26" as="geometry"/>
                </mxCell>
                <mxCell id="fChqnIq0Zc2DFT1DxzHm-19" value="Entity" style="swimlane;fontStyle=0;align=center;verticalAlign=top;childLayout=stackLayout;horizontal=1;startSize=26;horizontalStack=0;resizeParent=1;resizeLast=0;collapsible=1;marginBottom=0;rounded=0;shadow=0;strokeWidth=1;" parent="fChqnIq0Zc2DFT1DxzHm-1" vertex="1">
                    <mxGeometry x="560" y="90" width="160" height="86" as="geometry">
                        <mxRectangle x="550" y="140" width="160" height="26" as="alternateBounds"/>
                    </mxGeometry>
                </mxCell>
                <mxCell id="fChqnIq0Zc2DFT1DxzHm-20" value="Attributes [] " style="text;align=left;verticalAlign=top;spacingLeft=4;spacingRight=4;overflow=hidden;rotatable=0;points=[[0,0.5],[1,0.5]];portConstraint=eastwest;" parent="fChqnIq0Zc2DFT1DxzHm-19" vertex="1">
                    <mxGeometry y="26" width="160" height="26" as="geometry"/>
                </mxCell>
                <mxCell id="SOfggpRpbzAU_kPUNbKa-0" value="ID : str  " style="text;align=left;verticalAlign=top;spacingLeft=4;spacingRight=4;overflow=hidden;rotatable=0;points=[[0,0.5],[1,0.5]];portConstraint=eastwest;" parent="fChqnIq0Zc2DFT1DxzHm-19" vertex="1">
                    <mxGeometry y="52" width="160" height="26" as="geometry"/>
                </mxCell>
                <mxCell id="fChqnIq0Zc2DFT1DxzHm-25" value="" style="line;html=1;strokeWidth=1;align=left;verticalAlign=middle;spacingTop=-1;spacingLeft=3;spacingRight=3;rotatable=0;labelPosition=right;points=[];portConstraint=eastwest;" parent="fChqnIq0Zc2DFT1DxzHm-19" vertex="1">
                    <mxGeometry y="78" width="160" height="8" as="geometry"/>
                </mxCell>
                <mxCell id="SOfggpRpbzAU_kPUNbKa-9" style="edgeStyle=orthogonalEdgeStyle;rounded=0;orthogonalLoop=1;jettySize=auto;html=1;exitX=1;exitY=0.5;exitDx=0;exitDy=0;entryX=0;entryY=0.5;entryDx=0;entryDy=0;endArrow=none;endFill=0;" parent="fChqnIq0Zc2DFT1DxzHm-1" source="spbeYewRy1oI7hu4qLnQ-1" target="fChqnIq0Zc2DFT1DxzHm-20" edge="1">
                    <mxGeometry relative="1" as="geometry"/>
                </mxCell>
                <mxCell id="SOfggpRpbzAU_kPUNbKa-12" value="Interacts with" style="text;html=1;align=center;verticalAlign=middle;resizable=0;points=[];autosize=1;strokeColor=none;" parent="fChqnIq0Zc2DFT1DxzHm-1" vertex="1">
                    <mxGeometry x="420" y="100" width="90" height="20" as="geometry"/>
                </mxCell>
            </root>
        </mxGraphModel>
    </diagram>
    <diagram id="icTrmM7ZTJbNjstWPfer" name="Sequence">
        <mxGraphModel dx="1038" dy="547" grid="1" gridSize="10" guides="1" tooltips="1" connect="1" arrows="1" fold="1" page="1" pageScale="1" pageWidth="827" pageHeight="1169" math="0" shadow="0">
            <root>
                <mxCell id="jrYlc9BVUWoeFYFMCjiy-0"/>
                <mxCell id="jrYlc9BVUWoeFYFMCjiy-1" parent="jrYlc9BVUWoeFYFMCjiy-0"/>
                <mxCell id="yI1TwvscZgUStcdCOOLF-0" style="edgeStyle=orthogonalEdgeStyle;rounded=0;orthogonalLoop=1;jettySize=auto;html=1;" edge="1" parent="jrYlc9BVUWoeFYFMCjiy-1" source="yI1TwvscZgUStcdCOOLF-1">
                    <mxGeometry relative="1" as="geometry">
                        <mxPoint x="120" y="1200" as="targetPoint"/>
                    </mxGeometry>
                </mxCell>
                <mxCell id="yI1TwvscZgUStcdCOOLF-1" value="User" style="shape=umlActor;verticalLabelPosition=bottom;verticalAlign=top;html=1;outlineConnect=0;" vertex="1" parent="jrYlc9BVUWoeFYFMCjiy-1">
                    <mxGeometry x="100" y="40" width="40" height="80" as="geometry"/>
                </mxCell>
                <mxCell id="yI1TwvscZgUStcdCOOLF-2" value="Add entity" style="shape=umlFrame;whiteSpace=wrap;html=1;width=70;height=30;" vertex="1" parent="jrYlc9BVUWoeFYFMCjiy-1">
                    <mxGeometry x="40" y="160" width="600" height="320" as="geometry"/>
                </mxCell>
                <mxCell id="yI1TwvscZgUStcdCOOLF-3" value="While error" style="shape=umlFrame;whiteSpace=wrap;html=1;width=80;height=20;" vertex="1" parent="jrYlc9BVUWoeFYFMCjiy-1">
                    <mxGeometry x="50" y="200" width="570" height="210" as="geometry"/>
                </mxCell>
                <mxCell id="yI1TwvscZgUStcdCOOLF-4" value="User Interface" style="shape=umlLifeline;perimeter=lifelinePerimeter;whiteSpace=wrap;html=1;container=1;collapsible=0;recursiveResize=0;outlineConnect=0;" vertex="1" parent="jrYlc9BVUWoeFYFMCjiy-1">
                    <mxGeometry x="270" y="40" width="100" height="1160" as="geometry"/>
                </mxCell>
                <mxCell id="yI1TwvscZgUStcdCOOLF-5" value="repository" style="shape=umlLifeline;perimeter=lifelinePerimeter;whiteSpace=wrap;html=1;container=1;collapsible=0;recursiveResize=0;outlineConnect=0;" vertex="1" parent="jrYlc9BVUWoeFYFMCjiy-1">
                    <mxGeometry x="390" y="40" width="100" height="1160" as="geometry"/>
                </mxCell>
                <mxCell id="yI1TwvscZgUStcdCOOLF-6" value="addEntity(entity : entity)" style="html=1;verticalAlign=bottom;endArrow=block;" edge="1" parent="jrYlc9BVUWoeFYFMCjiy-1" target="yI1TwvscZgUStcdCOOLF-4">
                    <mxGeometry width="80" relative="1" as="geometry">
                        <mxPoint x="120" y="240" as="sourcePoint"/>
                        <mxPoint x="200" y="240" as="targetPoint"/>
                    </mxGeometry>
                </mxCell>
                <mxCell id="yI1TwvscZgUStcdCOOLF-7" value="SubmitEntity(Details)" style="html=1;verticalAlign=bottom;endArrow=block;" edge="1" parent="jrYlc9BVUWoeFYFMCjiy-1">
                    <mxGeometry width="80" relative="1" as="geometry">
                        <mxPoint x="320" y="279.5" as="sourcePoint"/>
                        <mxPoint x="439.5" y="279.5" as="targetPoint"/>
                    </mxGeometry>
                </mxCell>
                <mxCell id="yI1TwvscZgUStcdCOOLF-8" value="Validate(Details)" style="html=1;verticalAlign=bottom;endArrow=block;" edge="1" parent="jrYlc9BVUWoeFYFMCjiy-1">
                    <mxGeometry x="0.1667" y="20" width="80" relative="1" as="geometry">
                        <mxPoint x="440" y="320" as="sourcePoint"/>
                        <mxPoint x="440" y="360" as="targetPoint"/>
                        <Array as="points">
                            <mxPoint x="480" y="320"/>
                            <mxPoint x="480" y="360"/>
                        </Array>
                        <mxPoint as="offset"/>
                    </mxGeometry>
                </mxCell>
                <mxCell id="yI1TwvscZgUStcdCOOLF-9" value="Error" style="html=1;verticalAlign=bottom;endArrow=block;" edge="1" parent="jrYlc9BVUWoeFYFMCjiy-1">
                    <mxGeometry x="0.5" width="80" relative="1" as="geometry">
                        <mxPoint x="320" y="380" as="sourcePoint"/>
                        <mxPoint x="320" y="380" as="targetPoint"/>
                        <Array as="points">
                            <mxPoint x="440" y="380"/>
                        </Array>
                        <mxPoint as="offset"/>
                    </mxGeometry>
                </mxCell>
                <mxCell id="yI1TwvscZgUStcdCOOLF-10" value="Display(Error)" style="html=1;verticalAlign=bottom;endArrow=block;" edge="1" parent="jrYlc9BVUWoeFYFMCjiy-1">
                    <mxGeometry x="0.5" width="80" relative="1" as="geometry">
                        <mxPoint x="120" y="399.9999999999999" as="sourcePoint"/>
                        <mxPoint x="120" y="399.9999999999999" as="targetPoint"/>
                        <Array as="points">
                            <mxPoint x="240" y="400"/>
                        </Array>
                        <mxPoint as="offset"/>
                    </mxGeometry>
                </mxCell>
                <mxCell id="yI1TwvscZgUStcdCOOLF-11" value="ValidInformation" style="html=1;verticalAlign=bottom;endArrow=block;" edge="1" parent="jrYlc9BVUWoeFYFMCjiy-1">
                    <mxGeometry x="0.5" width="80" relative="1" as="geometry">
                        <mxPoint x="320" y="439.9999999999999" as="sourcePoint"/>
                        <mxPoint x="320" y="439.9999999999999" as="targetPoint"/>
                        <Array as="points">
                            <mxPoint x="440" y="440"/>
                        </Array>
                        <mxPoint as="offset"/>
                    </mxGeometry>
                </mxCell>
                <mxCell id="yI1TwvscZgUStcdCOOLF-12" value="Display Dashboard" style="html=1;verticalAlign=bottom;endArrow=block;" edge="1" parent="jrYlc9BVUWoeFYFMCjiy-1">
                    <mxGeometry x="0.5" width="80" relative="1" as="geometry">
                        <mxPoint x="120" y="459.9999999999999" as="sourcePoint"/>
                        <mxPoint x="120" y="459.9999999999999" as="targetPoint"/>
                        <Array as="points">
                            <mxPoint x="240" y="460"/>
                        </Array>
                        <mxPoint as="offset"/>
                    </mxGeometry>
                </mxCell>
                <mxCell id="yI1TwvscZgUStcdCOOLF-13" value="Registration" style="shape=umlFrame;whiteSpace=wrap;html=1;width=80;height=30;" vertex="1" parent="jrYlc9BVUWoeFYFMCjiy-1">
                    <mxGeometry x="40" y="520" width="410" height="320" as="geometry"/>
                </mxCell>
                <mxCell id="yI1TwvscZgUStcdCOOLF-14" value="While error" style="shape=umlFrame;whiteSpace=wrap;html=1;width=80;height=20;" vertex="1" parent="jrYlc9BVUWoeFYFMCjiy-1">
                    <mxGeometry x="50" y="560" width="390" height="210" as="geometry"/>
                </mxCell>
                <mxCell id="yI1TwvscZgUStcdCOOLF-15" value="EnterDetails" style="html=1;verticalAlign=bottom;endArrow=block;" edge="1" parent="jrYlc9BVUWoeFYFMCjiy-1">
                    <mxGeometry width="80" relative="1" as="geometry">
                        <mxPoint x="120" y="600" as="sourcePoint"/>
                        <mxPoint x="239.5" y="600" as="targetPoint"/>
                    </mxGeometry>
                </mxCell>
                <mxCell id="yI1TwvscZgUStcdCOOLF-16" value="Login (Details)" style="html=1;verticalAlign=bottom;endArrow=block;" edge="1" parent="jrYlc9BVUWoeFYFMCjiy-1">
                    <mxGeometry width="80" relative="1" as="geometry">
                        <mxPoint x="320" y="639.5" as="sourcePoint"/>
                        <mxPoint x="439.5" y="639.5" as="targetPoint"/>
                    </mxGeometry>
                </mxCell>
                <mxCell id="yI1TwvscZgUStcdCOOLF-17" value="Validate(Details)" style="html=1;verticalAlign=bottom;endArrow=block;" edge="1" parent="jrYlc9BVUWoeFYFMCjiy-1">
                    <mxGeometry x="0.1667" y="20" width="80" relative="1" as="geometry">
                        <mxPoint x="440" y="680" as="sourcePoint"/>
                        <mxPoint x="440" y="720" as="targetPoint"/>
                        <Array as="points">
                            <mxPoint x="480" y="680"/>
                            <mxPoint x="480" y="720"/>
                        </Array>
                        <mxPoint as="offset"/>
                    </mxGeometry>
                </mxCell>
                <mxCell id="yI1TwvscZgUStcdCOOLF-18" value="Error" style="html=1;verticalAlign=bottom;endArrow=block;" edge="1" parent="jrYlc9BVUWoeFYFMCjiy-1">
                    <mxGeometry x="0.5" width="80" relative="1" as="geometry">
                        <mxPoint x="320" y="740" as="sourcePoint"/>
                        <mxPoint x="320" y="740" as="targetPoint"/>
                        <Array as="points">
                            <mxPoint x="440" y="740"/>
                        </Array>
                        <mxPoint as="offset"/>
                    </mxGeometry>
                </mxCell>
                <mxCell id="yI1TwvscZgUStcdCOOLF-19" value="Display(Error)" style="html=1;verticalAlign=bottom;endArrow=block;" edge="1" parent="jrYlc9BVUWoeFYFMCjiy-1">
                    <mxGeometry x="0.5" width="80" relative="1" as="geometry">
                        <mxPoint x="120" y="760" as="sourcePoint"/>
                        <mxPoint x="120" y="760" as="targetPoint"/>
                        <Array as="points">
                            <mxPoint x="240" y="760"/>
                        </Array>
                        <mxPoint as="offset"/>
                    </mxGeometry>
                </mxCell>
                <mxCell id="yI1TwvscZgUStcdCOOLF-20" value="ValidInformation" style="html=1;verticalAlign=bottom;endArrow=block;" edge="1" parent="jrYlc9BVUWoeFYFMCjiy-1">
                    <mxGeometry x="0.5" width="80" relative="1" as="geometry">
                        <mxPoint x="320" y="800" as="sourcePoint"/>
                        <mxPoint x="320" y="800" as="targetPoint"/>
                        <Array as="points">
                            <mxPoint x="440" y="800"/>
                        </Array>
                        <mxPoint as="offset"/>
                    </mxGeometry>
                </mxCell>
                <mxCell id="yI1TwvscZgUStcdCOOLF-21" value="Display Dashboard" style="html=1;verticalAlign=bottom;endArrow=block;" edge="1" parent="jrYlc9BVUWoeFYFMCjiy-1">
                    <mxGeometry x="0.5" width="80" relative="1" as="geometry">
                        <mxPoint x="120" y="820" as="sourcePoint"/>
                        <mxPoint x="120" y="820" as="targetPoint"/>
                        <Array as="points">
                            <mxPoint x="240" y="820"/>
                        </Array>
                        <mxPoint as="offset"/>
                    </mxGeometry>
                </mxCell>
            </root>
        </mxGraphModel>
    </diagram>
    <diagram id="xbMp-x96-1q4y-5lv1zd" name="GeneralizedActivity">
        <mxGraphModel dx="122" dy="330" grid="1" gridSize="10" guides="1" tooltips="1" connect="1" arrows="1" fold="1" page="1" pageScale="1" pageWidth="850" pageHeight="1100" math="0" shadow="0">
            <root>
                <mxCell id="ws3F2MdI1R9mVIvDkpfv-0"/>
                <mxCell id="ws3F2MdI1R9mVIvDkpfv-1" parent="ws3F2MdI1R9mVIvDkpfv-0"/>
                <mxCell id="ws3F2MdI1R9mVIvDkpfv-2" style="edgeStyle=orthogonalEdgeStyle;rounded=0;orthogonalLoop=1;jettySize=auto;html=1;" edge="1" parent="ws3F2MdI1R9mVIvDkpfv-1" source="ws3F2MdI1R9mVIvDkpfv-3">
                    <mxGeometry relative="1" as="geometry">
                        <mxPoint x="1420" y="517" as="targetPoint"/>
                    </mxGeometry>
                </mxCell>
                <mxCell id="ws3F2MdI1R9mVIvDkpfv-3" value="Check operation and parameters" style="rounded=1;whiteSpace=wrap;html=1;fillColor=#f8cecc;strokeColor=#b85450;" vertex="1" parent="ws3F2MdI1R9mVIvDkpfv-1">
                    <mxGeometry x="1325" y="417" width="190" height="40" as="geometry"/>
                </mxCell>
                <mxCell id="ws3F2MdI1R9mVIvDkpfv-4" style="edgeStyle=orthogonalEdgeStyle;rounded=0;orthogonalLoop=1;jettySize=auto;html=1;entryX=0.5;entryY=1;entryDx=0;entryDy=0;exitX=0;exitY=0.5;exitDx=0;exitDy=0;" edge="1" parent="ws3F2MdI1R9mVIvDkpfv-1" source="ws3F2MdI1R9mVIvDkpfv-6" target="ws3F2MdI1R9mVIvDkpfv-8">
                    <mxGeometry relative="1" as="geometry">
                        <mxPoint x="1170" y="487" as="targetPoint"/>
                    </mxGeometry>
                </mxCell>
                <mxCell id="ws3F2MdI1R9mVIvDkpfv-5" style="edgeStyle=orthogonalEdgeStyle;rounded=0;orthogonalLoop=1;jettySize=auto;html=1;" edge="1" parent="ws3F2MdI1R9mVIvDkpfv-1" source="ws3F2MdI1R9mVIvDkpfv-6">
                    <mxGeometry relative="1" as="geometry">
                        <mxPoint x="1420" y="637" as="targetPoint"/>
                    </mxGeometry>
                </mxCell>
                <mxCell id="ws3F2MdI1R9mVIvDkpfv-6" value="Is operation valid?" style="rhombus;whiteSpace=wrap;html=1;fillColor=#f8cecc;strokeColor=#b85450;" vertex="1" parent="ws3F2MdI1R9mVIvDkpfv-1">
                    <mxGeometry x="1320" y="517" width="200" height="70" as="geometry"/>
                </mxCell>
                <mxCell id="ws3F2MdI1R9mVIvDkpfv-7" style="edgeStyle=orthogonalEdgeStyle;rounded=0;orthogonalLoop=1;jettySize=auto;html=1;exitX=0.5;exitY=0;exitDx=0;exitDy=0;entryX=0;entryY=0.5;entryDx=0;entryDy=0;" edge="1" parent="ws3F2MdI1R9mVIvDkpfv-1" source="ws3F2MdI1R9mVIvDkpfv-8" target="ws3F2MdI1R9mVIvDkpfv-3">
                    <mxGeometry relative="1" as="geometry"/>
                </mxCell>
                <mxCell id="ws3F2MdI1R9mVIvDkpfv-8" value="Display error" style="rounded=1;whiteSpace=wrap;html=1;fillColor=#f8cecc;strokeColor=#b85450;" vertex="1" parent="ws3F2MdI1R9mVIvDkpfv-1">
                    <mxGeometry x="1200" y="477" width="120" height="40" as="geometry"/>
                </mxCell>
                <mxCell id="ws3F2MdI1R9mVIvDkpfv-9" style="edgeStyle=orthogonalEdgeStyle;rounded=0;orthogonalLoop=1;jettySize=auto;html=1;" edge="1" parent="ws3F2MdI1R9mVIvDkpfv-1" source="ws3F2MdI1R9mVIvDkpfv-10">
                    <mxGeometry relative="1" as="geometry">
                        <mxPoint x="1420" y="717" as="targetPoint"/>
                    </mxGeometry>
                </mxCell>
                <mxCell id="ws3F2MdI1R9mVIvDkpfv-10" value="Perform operation" style="rounded=1;whiteSpace=wrap;html=1;fillColor=#f8cecc;strokeColor=#b85450;" vertex="1" parent="ws3F2MdI1R9mVIvDkpfv-1">
                    <mxGeometry x="1345" y="637" width="150" height="40" as="geometry"/>
                </mxCell>
                <mxCell id="ws3F2MdI1R9mVIvDkpfv-11" value="&amp;nbsp;Update view of table" style="rounded=1;whiteSpace=wrap;html=1;fillColor=#f8cecc;strokeColor=#b85450;" vertex="1" parent="ws3F2MdI1R9mVIvDkpfv-1">
                    <mxGeometry x="1336.25" y="717" width="167.5" height="40" as="geometry"/>
                </mxCell>
                <mxCell id="ws3F2MdI1R9mVIvDkpfv-12" style="edgeStyle=orthogonalEdgeStyle;rounded=0;orthogonalLoop=1;jettySize=auto;html=1;entryX=0.5;entryY=0;entryDx=0;entryDy=0;" edge="1" parent="ws3F2MdI1R9mVIvDkpfv-1" source="ws3F2MdI1R9mVIvDkpfv-13" target="ws3F2MdI1R9mVIvDkpfv-3">
                    <mxGeometry relative="1" as="geometry"/>
                </mxCell>
                <mxCell id="ws3F2MdI1R9mVIvDkpfv-13" value="Initiate operation" style="rounded=1;whiteSpace=wrap;html=1;fillColor=#f8cecc;strokeColor=#b85450;" vertex="1" parent="ws3F2MdI1R9mVIvDkpfv-1">
                    <mxGeometry x="1350" y="327" width="140" height="40" as="geometry"/>
                </mxCell>
                <mxCell id="ws3F2MdI1R9mVIvDkpfv-14" value="No" style="text;html=1;align=center;verticalAlign=middle;resizable=0;points=[];autosize=1;strokeColor=none;" vertex="1" parent="ws3F2MdI1R9mVIvDkpfv-1">
                    <mxGeometry x="1260" y="557" width="30" height="20" as="geometry"/>
                </mxCell>
                <mxCell id="ws3F2MdI1R9mVIvDkpfv-15" value="Yes" style="text;html=1;align=center;verticalAlign=middle;resizable=0;points=[];autosize=1;strokeColor=none;" vertex="1" parent="ws3F2MdI1R9mVIvDkpfv-1">
                    <mxGeometry x="1390" y="597" width="30" height="20" as="geometry"/>
                </mxCell>
            </root>
        </mxGraphModel>
    </diagram>
</mxfile>